<svg xmlns="http://www.w3.org/2000/svg" viewBox="0 0 64 64" fill="none" stroke="#00ff41" stroke-width="1.5">
  <!-- Main bus lines -->
  <line x1="8" y1="16" x2="56" y2="16"/>
  <line x1="8" y1="32" x2="56" y2="32"/>
  <line x1="8" y1="48" x2="56" y2="48"/>
  <!-- Vertical connections -->
  <line x1="16" y1="8" x2="16" y2="56"/>
  <line x1="32" y1="8" x2="32" y2="56"/>
  <line x1="48" y1="8" x2="48" y2="56"/>
  <!-- Junction nodes -->
  <circle cx="16" cy="16" r="3" fill="#00ff41" stroke="none"/>
  <circle cx="32" cy="16" r="3" fill="#00ff41" stroke="none"/>
  <circle cx="48" cy="16" r="3" fill="#00ff41" stroke="none"/>
  <circle cx="16" cy="32" r="3" fill="#00ff41" stroke="none"/>
  <circle cx="32" cy="32" r="3" fill="#00ff41" stroke="none"/>
  <circle cx="48" cy="32" r="3" fill="#00ff41" stroke="none"/>
  <circle cx="16" cy="48" r="3" fill="#00ff41" stroke="none"/>
  <circle cx="32" cy="48" r="3" fill="#00ff41" stroke="none"/>
  <circle cx="48" cy="48" r="3" fill="#00ff41" stroke="none"/>
  <!-- Data flow indicators -->
  <path d="M10 14h4v4h-4z" fill="#00ff41" stroke="none"/>
  <path d="M42 30h4v4h-4z" fill="#00ff41" stroke="none"/>
  <path d="M26 46h4v4h-4z" fill="#00ff41" stroke="none"/>
  <!-- Binary labels -->
  <text x="50" y="12" font-family="monospace" font-size="4" fill="#00ff41" stroke="none">01</text>
  <text x="50" y="28" font-family="monospace" font-size="4" fill="#00ff41" stroke="none">10</text>
  <text x="50" y="44" font-family="monospace" font-size="4" fill="#00ff41" stroke="none">11</text>
</svg>