<svg xmlns="http://www.w3.org/2000/svg" viewBox="0 0 64 64" fill="none" stroke="#00ff41" stroke-width="1.5">
  <!-- Morphing shape - transforming square to circle -->
  <path d="M16 20c0-4 4-8 8-8h16c4 0 8 4 8 8v24c0 4-4 8-8 8H24c-4 0-8-4-8-8V20z"
        stroke-dasharray="4 2"/>
  <!-- Inner morphing shape -->
  <path d="M20 24c0-2 2-4 4-4h16c2 0 4 2 4 4v16c0 2-2 4-4 4H24c-2 0-4-2-4-4V24z"
        fill="#00ff41" fill-opacity="0.1"/>
  <!-- Transformation arrows -->
  <path d="M10 32c0-8 4-12 8-14"/>
  <polyline points="16,20 18,18 20,20"/>
  <path d="M54 32c0 8-4 12-8 14"/>
  <polyline points="48,44 46,46 44,44"/>
  <!-- Dynamic dots -->
  <circle cx="12" cy="20" r="2" fill="#00ff41" stroke="none"/>
  <circle cx="52" cy="44" r="2" fill="#00ff41" stroke="none"/>
  <!-- Binary flow -->
  <g opacity="0.5">
    <text x="8" y="48" font-family="monospace" font-size="4" fill="#00ff41" stroke="none">01</text>
    <text x="48" y="16" font-family="monospace" font-size="4" fill="#00ff41" stroke="none">10</text>
  </g>
  <!-- Circuit connections -->
  <line x1="32" y1="8" x2="32" y2="12"/>
  <line x1="32" y1="52" x2="32" y2="56"/>
  <circle cx="32" cy="8" r="1.5" fill="#00ff41" stroke="none"/>
  <circle cx="32" cy="56" r="1.5" fill="#00ff41" stroke="none"/>
</svg>