<svg xmlns="http://www.w3.org/2000/svg" viewBox="0 0 64 64" fill="none" stroke="#00ff41" stroke-width="1.5">
  <!-- Energy bolt -->
  <path d="M34 8l-12 20h10l-4 16 16-20H30l6-16z" fill="#00ff41" fill-opacity="0.2" stroke-width="2"/>
  <!-- Power circuit -->
  <circle cx="32" cy="46" r="8"/>
  <!-- Power symbol -->
  <line x1="32" y1="40" x2="32" y2="46"/>
  <path d="M28 42c-2 2-2 6 0 8s6 2 8 0 2-6 0-8"/>
  <!-- Energy bars -->
  <rect x="8" y="36" width="4" height="12" rx="1" fill="#00ff41" stroke="none" opacity="0.3"/>
  <rect x="14" y="32" width="4" height="16" rx="1" fill="#00ff41" stroke="none" opacity="0.5"/>
  <rect x="20" y="28" width="4" height="20" rx="1" fill="#00ff41" stroke="none" opacity="0.7"/>
  <rect x="52" y="36" width="4" height="12" rx="1" fill="#00ff41" stroke="none" opacity="0.3"/>
  <rect x="46" y="32" width="4" height="16" rx="1" fill="#00ff41" stroke="none" opacity="0.5"/>
  <rect x="40" y="28" width="4" height="20" rx="1" fill="#00ff41" stroke="none" opacity="0.7"/>
  <!-- Binary efficiency -->
  <text x="10" y="56" font-family="monospace" font-size="4" fill="#00ff41" stroke="none">01</text>
  <text x="46" y="56" font-family="monospace" font-size="4" fill="#00ff41" stroke="none">10</text>
  <!-- Circuit nodes -->
  <circle cx="12" cy="32" r="1.5" fill="#00ff41" stroke="none"/>
  <circle cx="52" cy="32" r="1.5" fill="#00ff41" stroke="none"/>
</svg>