<svg viewBox="0 0 64 64" xmlns="http://www.w3.org/2000/svg">
  <!-- Hexagon frame -->
  <path d="M32 4 L56 16 L56 44 L32 56 L8 44 L8 16 Z" fill="none" stroke="currentColor" stroke-width="1.5" opacity="0.3"/>

  <!-- Bypass arrow - main path -->
  <path d="M10 32 L28 32 L28 24 L42 32 L28 40 L28 32" fill="none" stroke="currentColor" stroke-width="2.5" stroke-linejoin="round"/>
  <polygon points="42,32 36,28 36,36" fill="currentColor"/>

  <!-- Bypassed kernel layer -->
  <rect x="46" y="18" width="8" height="28" rx="1" fill="none" stroke="currentColor" stroke-width="1.5" opacity="0.4"/>
  <line x1="50" y1="22" x2="50" y2="42" stroke="currentColor" stroke-width="1" stroke-dasharray="2 2" opacity="0.3"/>

  <!-- Speed lines -->
  <line x1="14" y1="24" x2="22" y2="24" stroke="currentColor" stroke-width="1" opacity="0.6"/>
  <line x1="16" y1="40" x2="24" y2="40" stroke="currentColor" stroke-width="1" opacity="0.6"/>

  <!-- Network packet indicators -->
  <circle cx="18" cy="20" r="2" fill="currentColor" opacity="0.8"/>
  <circle cx="22" cy="44" r="2" fill="currentColor" opacity="0.8"/>

  <!-- Hex accent -->
  <path d="M54 14 L56 15 L56 17 L54 18 L52 17 L52 15 Z" fill="currentColor"/>
</svg>