<svg viewBox="0 0 64 64" xmlns="http://www.w3.org/2000/svg">
  <!-- Hexagon frame -->
  <path d="M32 4 L56 16 L56 44 L32 56 L8 44 L8 16 Z" fill="none" stroke="currentColor" stroke-width="1.5" opacity="0.3"/>

  <!-- Random noise pattern - scattered hexagons -->
  <path d="M18 16 L21 17.5 L21 20.5 L18 22 L15 20.5 L15 17.5 Z" fill="currentColor" opacity="0.9"/>
  <path d="M46 14 L49 15.5 L49 18.5 L46 20 L43 18.5 L43 15.5 Z" fill="currentColor" opacity="0.6"/>
  <path d="M14 30 L17 31.5 L17 34.5 L14 36 L11 34.5 L11 31.5 Z" fill="currentColor" opacity="0.7"/>
  <path d="M50 28 L53 29.5 L53 32.5 L50 34 L47 32.5 L47 29.5 Z" fill="currentColor" opacity="0.8"/>
  <path d="M20 44 L23 45.5 L23 48.5 L20 50 L17 48.5 L17 45.5 Z" fill="currentColor" opacity="0.5"/>
  <path d="M44 42 L47 43.5 L47 46.5 L44 48 L41 46.5 L41 43.5 Z" fill="currentColor" opacity="0.9"/>

  <!-- Central chaos core -->
  <circle cx="32" cy="30" r="6" fill="none" stroke="currentColor" stroke-width="1.5"/>
  <circle cx="32" cy="30" r="3" fill="currentColor" opacity="0.4"/>

  <!-- Random lines -->
  <line x1="26" y1="24" x2="23" y2="20" stroke="currentColor" stroke-width="0.8" opacity="0.6"/>
  <line x1="38" y1="24" x2="44" y2="18" stroke="currentColor" stroke-width="0.8" opacity="0.6"/>
  <line x1="26" y1="36" x2="20" y2="42" stroke="currentColor" stroke-width="0.8" opacity="0.6"/>
  <line x1="38" y1="36" x2="44" y2="40" stroke="currentColor" stroke-width="0.8" opacity="0.6"/>

  <!-- Entropy wave -->
  <path d="M8 32 Q16 28 24 32 T40 32 T56 28" fill="none" stroke="currentColor" stroke-width="1" opacity="0.4"/>
</svg>