<svg xmlns="http://www.w3.org/2000/svg" viewBox="0 0 64 64" fill="none" stroke="#00ff41" stroke-width="1.5">
  <!-- Shield outline -->
  <path d="M32 8L12 16v16c0 14 8.5 22 20 24 11.5-2 20-10 20-24V16L32 8z"/>
  <!-- Inner shield -->
  <path d="M32 14L18 19.5v12c0 10 6 16.5 14 18 8-1.5 14-8 14-18v-12L32 14z" fill="#00ff41" fill-opacity="0.1"/>
  <!-- Lock symbol -->
  <rect x="26" y="30" width="12" height="10" rx="1"/>
  <path d="M28 30v-4c0-2 1.8-4 4-4s4 2 4 4v4"/>
  <!-- Keyhole -->
  <circle cx="32" cy="35" r="1.5" fill="#00ff41" stroke="none"/>
  <line x1="32" y1="36.5" x2="32" y2="38"/>
  <!-- Binary pattern -->
  <g opacity="0.4">
    <text x="14" y="52" font-family="monospace" font-size="3" fill="#00ff41" stroke="none">10</text>
    <text x="44" y="52" font-family="monospace" font-size="3" fill="#00ff41" stroke="none">01</text>
  </g>
  <!-- Circuit traces -->
  <line x1="8" y1="32" x2="12" y2="32"/>
  <line x1="52" y1="32" x2="56" y2="32"/>
  <circle cx="8" cy="32" r="1.5" fill="#00ff41" stroke="none"/>
  <circle cx="56" cy="32" r="1.5" fill="#00ff41" stroke="none"/>
</svg>