<svg xmlns="http://www.w3.org/2000/svg" viewBox="0 0 64 64" fill="none" stroke="#00ff41" stroke-width="1.5">
  <!-- Hardware chip outline -->
  <rect x="16" y="16" width="32" height="32" rx="2"/>
  <!-- Chip pins -->
  <line x1="16" y1="22" x2="12" y2="22"/>
  <line x1="16" y1="32" x2="12" y2="32"/>
  <line x1="16" y1="42" x2="12" y2="42"/>
  <line x1="48" y1="22" x2="52" y2="22"/>
  <line x1="48" y1="32" x2="52" y2="32"/>
  <line x1="48" y1="42" x2="52" y2="42"/>
  <line x1="22" y1="16" x2="22" y2="12"/>
  <line x1="32" y1="16" x2="32" y2="12"/>
  <line x1="42" y1="16" x2="42" y2="12"/>
  <line x1="22" y1="48" x2="22" y2="52"/>
  <line x1="32" y1="48" x2="32" y2="52"/>
  <line x1="42" y1="48" x2="42" y2="52"/>
  <!-- Random chaos symbol -->
  <circle cx="32" cy="32" r="8"/>
  <!-- Random lines inside -->
  <path d="M26 32h12M32 26v12" stroke-width="1"/>
  <path d="M28 28l8 8M28 36l8-8" stroke-width="1"/>
  <!-- Binary randomness -->
  <g opacity="0.6">
    <text x="20" y="20" font-family="monospace" font-size="3" fill="#00ff41" stroke="none">1</text>
    <text x="42" y="20" font-family="monospace" font-size="3" fill="#00ff41" stroke="none">0</text>
    <text x="20" y="46" font-family="monospace" font-size="3" fill="#00ff41" stroke="none">0</text>
    <text x="42" y="46" font-family="monospace" font-size="3" fill="#00ff41" stroke="none">1</text>
  </g>
  <!-- Noise dots -->
  <circle cx="24" cy="32" r="1" fill="#00ff41" stroke="none"/>
  <circle cx="40" cy="32" r="1" fill="#00ff41" stroke="none"/>
  <circle cx="32" cy="24" r="1" fill="#00ff41" stroke="none"/>
  <circle cx="32" cy="40" r="1" fill="#00ff41" stroke="none"/>
</svg>