<svg viewBox="0 0 64 64" xmlns="http://www.w3.org/2000/svg">
  <defs>
    <linearGradient id="silver" x1="0%" y1="0%" x2="0%" y2="100%">
      <stop offset="0%" stop-color="#e8e8e8"/>
      <stop offset="100%" stop-color="#7a7a7a"/>
    </linearGradient>
  </defs>
  <!-- Layer 3 - bottom -->
  <path d="M12 36 L32 46 L52 36 L52 40 L32 50 L12 40 Z" fill="#7a7a7a"/>
  <path d="M12 36 L32 46 L52 36 L32 26 Z" fill="#a0a0a0"/>
  <!-- Layer 2 - middle -->
  <path d="M12 24 L32 34 L52 24 L52 28 L32 38 L12 28 Z" fill="#9a9a9a"/>
  <path d="M12 24 L32 34 L52 24 L32 14 Z" fill="#b0b0b0"/>
  <!-- Layer 1 - top -->
  <path d="M12 12 L32 22 L52 12 L52 16 L32 26 L12 16 Z" fill="#c0c0c0"/>
  <path d="M12 12 L32 22 L52 12 L32 2 Z" fill="url(#silver)"/>
  <!-- Nano connections between layers -->
  <line x1="20" y1="18" x2="20" y2="30" stroke="#7a7a7a" stroke-width="0.5" stroke-dasharray="2,1"/>
  <line x1="32" y1="22" x2="32" y2="34" stroke="#7a7a7a" stroke-width="0.5" stroke-dasharray="2,1"/>
  <line x1="44" y1="18" x2="44" y2="30" stroke="#7a7a7a" stroke-width="0.5" stroke-dasharray="2,1"/>
  <line x1="24" y1="30" x2="24" y2="42" stroke="#7a7a7a" stroke-width="0.5" stroke-dasharray="2,1"/>
  <line x1="36" y1="30" x2="36" y2="42" stroke="#7a7a7a" stroke-width="0.5" stroke-dasharray="2,1"/>
  <line x1="40" y1="30" x2="40" y2="42" stroke="#7a7a7a" stroke-width="0.5" stroke-dasharray="2,1"/>
  <!-- Side hexagons -->
  <path d="M4 24 L8 26 L8 30 L4 32 L0 30 L0 26 Z" fill="#a0a0a0"/>
  <path d="M60 24 L64 26 L64 30 L60 32 L56 30 L56 26 Z" fill="#a0a0a0"/>
  <!-- HV text -->
  <text x="32" y="18" text-anchor="middle" font-size="6" fill="#5a5a5a" font-weight="bold">HV</text>
</svg>