<svg viewBox="0 0 64 64" xmlns="http://www.w3.org/2000/svg">
  <defs>
    <linearGradient id="silver" x1="0%" y1="0%" x2="100%" y2="0%">
      <stop offset="0%" stop-color="#7a7a7a"/>
      <stop offset="50%" stop-color="#c0c0c0"/>
      <stop offset="100%" stop-color="#7a7a7a"/>
    </linearGradient>
  </defs>
  <!-- Persistent storage hexagon layers -->
  <path d="M8 40 L32 52 L56 40 L56 44 L32 56 L8 44 Z" fill="#5a5a5a"/>
  <path d="M8 34 L32 46 L56 34 L56 38 L32 50 L8 38 Z" fill="#6a6a6a"/>
  <path d="M8 28 L32 40 L56 28 L56 32 L32 44 L8 32 Z" fill="#7a7a7a"/>
  <path d="M8 22 L32 34 L56 22 L56 26 L32 38 L8 26 Z" fill="#8a8a8a"/>
  <path d="M8 16 L32 28 L56 16 L56 20 L32 32 L8 20 Z" fill="#9a9a9a"/>
  <path d="M8 10 L32 22 L56 10 L56 14 L32 26 L8 14 Z" fill="#aaaaaa"/>
  <path d="M8 4 L32 16 L56 4 L32 -8 Z" fill="url(#silver)"/>
  <!-- Persistence indicator (infinity/loop) -->
  <path d="M24 12 Q28 8 32 12 Q36 16 40 12" fill="none" stroke="#7a7a7a" stroke-width="1.5"/>
  <path d="M24 12 Q20 16 24 20" fill="none" stroke="#7a7a7a" stroke-width="1.5"/>
  <path d="M40 12 Q44 8 40 4" fill="none" stroke="#7a7a7a" stroke-width="1.5"/>
  <!-- Nano connectors on sides -->
  <path d="M2 24 L8 26 L8 30 L2 32 L-4 30 L-4 26 Z" fill="#a0a0a0"/>
  <path d="M62 24 L68 26 L68 30 L62 32 L56 30 L56 26 Z" fill="#a0a0a0"/>
  <!-- Data bits -->
  <rect x="14" y="18" width="3" height="3" fill="#7a7a7a"/>
  <rect x="22" y="22" width="3" height="3" fill="#7a7a7a"/>
  <rect x="38" y="20" width="3" height="3" fill="#7a7a7a"/>
  <rect x="46" y="16" width="3" height="3" fill="#7a7a7a"/>
</svg>