<svg viewBox="0 0 64 64" xmlns="http://www.w3.org/2000/svg">
  <!-- Outer wall (damaged concrete) -->
  <path d="M8 16 L32 6 L56 16 L56 48 L32 58 L8 48 Z" fill="#2a2a2a" stroke="#4a4a4a" stroke-width="2"/>
  <!-- Crack in outer wall -->
  <path d="M48 20 L52 28 L48 36" fill="none" stroke="#1a1a1a" stroke-width="2"/>
  <!-- Inner secure core -->
  <path d="M18 24 L32 18 L46 24 L46 42 L32 48 L18 42 Z" fill="#1a1a1a" stroke="#ff6b35" stroke-width="2"/>
  <!-- Lock symbol -->
  <rect x="26" y="30" width="12" height="10" rx="1" fill="#ff6b35" opacity="0.8"/>
  <rect x="29" y="26" width="6" height="6" fill="none" stroke="#ff6b35" stroke-width="2"/>
  <!-- Keyhole -->
  <circle cx="32" cy="34" r="2" fill="#1a1a1a"/>
  <path d="M32 36 L31 38 L33 38 Z" fill="#1a1a1a"/>
  <!-- Security rings -->
  <path d="M22 28 L22 38" stroke="#8b4513" stroke-width="1.5" opacity="0.7"/>
  <path d="M42 28 L42 38" stroke="#8b4513" stroke-width="1.5" opacity="0.7"/>
  <!-- Rust on outer wall -->
  <circle cx="14" cy="44" r="3" fill="#a0522d" opacity="0.5"/>
  <circle cx="50" cy="12" r="2" fill="#8b4513" opacity="0.4"/>
  <!-- Protected data hint -->
  <rect x="28" y="52" width="8" height="3" fill="#ff6b35" opacity="0.6"/>
</svg>