<svg xmlns="http://www.w3.org/2000/svg" viewBox="0 0 64 64" width="64" height="64">

  <defs>
    <!-- Sunset gradient -->
    <linearGradient id="sunset" x1="0%" y1="0%" x2="0%" y2="100%">
      <stop offset="0%" style="stop-color:#ff6b35"/>
      <stop offset="50%" style="stop-color:#f7931e"/>
      <stop offset="100%" style="stop-color:#ff00a0"/>
    </linearGradient>
    <!-- Cyan glow -->
    <linearGradient id="cyanGlow" x1="0%" y1="0%" x2="100%" y2="100%">
      <stop offset="0%" style="stop-color:#00ffff"/>
      <stop offset="100%" style="stop-color:#0080ff"/>
    </linearGradient>
    <!-- Chrome gradient -->
    <linearGradient id="chrome" x1="0%" y1="0%" x2="100%" y2="0%">
      <stop offset="0%" style="stop-color:#ff00a0"/>
      <stop offset="50%" style="stop-color:#00ffff"/>
      <stop offset="100%" style="stop-color:#ff6b35"/>
    </linearGradient>
    <!-- Grid pattern -->
    <pattern id="grid" width="8" height="8" patternUnits="userSpaceOnUse">
      <path d="M 8 0 L 0 0 0 8" fill="none" stroke="#ff00a0" stroke-width="0.5" opacity="0.3"/>
    </pattern>
    <!-- Pink glow filter -->
    <filter id="pinkGlow" x="-50%" y="-50%" width="200%" height="200%">
      <feGaussianBlur stdDeviation="1.5" result="blur"/>
      <feMerge>
        <feMergeNode in="blur"/>
        <feMergeNode in="SourceGraphic"/>
      </feMerge>
    </filter>
    <!-- Cyan glow filter -->
    <filter id="cyanGlowFilter" x="-50%" y="-50%" width="200%" height="200%">
      <feGaussianBlur stdDeviation="1.5" result="blur"/>
      <feMerge>
        <feMergeNode in="blur"/>
        <feMergeNode in="SourceGraphic"/>
      </feMerge>
    </filter>
  </defs>

  <!-- Background with grid -->
  <rect width="64" height="64" fill="#1a0b2e" rx="4"/>
  <rect width="64" height="64" fill="url(#grid)" rx="4"/>

  <!-- Security Enclave Icon -->
  <path d="M 32 8 L 52 16 L 52 32 Q 52 48 32 56 Q 12 48 12 32 L 12 16 Z" fill="none" stroke="url(#chrome)" stroke-width="2" filter="url(#pinkGlow)"/>
  <path d="M 32 14 L 46 20 L 46 32 Q 46 44 32 50 Q 18 44 18 32 L 18 20 Z" fill="none" stroke="#00ffff" stroke-width="1.5" filter="url(#cyanGlowFilter)"/>
  <rect x="26" y="28" width="12" height="10" rx="1" fill="#ff00a0" filter="url(#pinkGlow)"/>
  <rect x="28" y="24" width="8" height="6" fill="none" stroke="#00ffff" stroke-width="2"/>
  <circle cx="32" cy="33" r="1.5" fill="#00ffff"/>

</svg>