<svg xmlns="http://www.w3.org/2000/svg" viewBox="0 0 64 64" width="64" height="64">

  <defs>
    <!-- Sunset gradient -->
    <linearGradient id="sunset" x1="0%" y1="0%" x2="0%" y2="100%">
      <stop offset="0%" style="stop-color:#ff6b35"/>
      <stop offset="50%" style="stop-color:#f7931e"/>
      <stop offset="100%" style="stop-color:#ff00a0"/>
    </linearGradient>
    <!-- Cyan glow -->
    <linearGradient id="cyanGlow" x1="0%" y1="0%" x2="100%" y2="100%">
      <stop offset="0%" style="stop-color:#00ffff"/>
      <stop offset="100%" style="stop-color:#0080ff"/>
    </linearGradient>
    <!-- Chrome gradient -->
    <linearGradient id="chrome" x1="0%" y1="0%" x2="100%" y2="0%">
      <stop offset="0%" style="stop-color:#ff00a0"/>
      <stop offset="50%" style="stop-color:#00ffff"/>
      <stop offset="100%" style="stop-color:#ff6b35"/>
    </linearGradient>
    <!-- Grid pattern -->
    <pattern id="grid" width="8" height="8" patternUnits="userSpaceOnUse">
      <path d="M 8 0 L 0 0 0 8" fill="none" stroke="#ff00a0" stroke-width="0.5" opacity="0.3"/>
    </pattern>
    <!-- Pink glow filter -->
    <filter id="pinkGlow" x="-50%" y="-50%" width="200%" height="200%">
      <feGaussianBlur stdDeviation="1.5" result="blur"/>
      <feMerge>
        <feMergeNode in="blur"/>
        <feMergeNode in="SourceGraphic"/>
      </feMerge>
    </filter>
    <!-- Cyan glow filter -->
    <filter id="cyanGlowFilter" x="-50%" y="-50%" width="200%" height="200%">
      <feGaussianBlur stdDeviation="1.5" result="blur"/>
      <feMerge>
        <feMergeNode in="blur"/>
        <feMergeNode in="SourceGraphic"/>
      </feMerge>
    </filter>
  </defs>

  <!-- Background with grid -->
  <rect width="64" height="64" fill="#1a0b2e" rx="4"/>
  <rect width="64" height="64" fill="url(#grid)" rx="4"/>

  <!-- Setup Wizard Icon -->
  <path d="M 32 8 L 12 48 L 52 48 Z" fill="url(#sunset)" filter="url(#pinkGlow)"/>
  <ellipse cx="32" cy="48" rx="22" ry="4" fill="none" stroke="#00ffff" stroke-width="2" filter="url(#cyanGlowFilter)"/>
  <path d="M 32 16 L 34 22 L 40 22 L 35 26 L 37 32 L 32 28 L 27 32 L 29 26 L 24 22 L 30 22 Z" fill="#00ffff" filter="url(#cyanGlowFilter)"/>
  <line x1="44" y1="14" x2="50" y2="8" stroke="#f7931e" stroke-width="2"/>
  <circle cx="50" cy="8" r="2" fill="#f7931e"/>
  <circle cx="16" cy="20" r="1.5" fill="#00ffff"/>
  <circle cx="48" cy="36" r="1.5" fill="#00ffff"/>

</svg>