<svg viewBox="0 0 64 64" xmlns="http://www.w3.org/2000/svg">
  <defs>
    <linearGradient id="pmemSilver" x1="0%" y1="0%" x2="100%" y2="100%">
      <stop offset="0%" stop-color="#ffffff"/>
      <stop offset="50%" stop-color="#c0c0c0"/>
      <stop offset="100%" stop-color="#808080"/>
    </linearGradient>
    <linearGradient id="pmemGold" x1="0%" y1="0%" x2="0%" y2="100%">
      <stop offset="0%" stop-color="#d4af37"/>
      <stop offset="100%" stop-color="#b8941f"/>
    </linearGradient>
  </defs>
  <!-- Ethereal memory chip outline -->
  <rect x="16" y="12" width="32" height="40" rx="2" fill="none" stroke="url(#pmemSilver)" stroke-width="1.5" opacity="0.8"/>
  <!-- Divine connection pins -->
  <line x1="20" y1="8" x2="20" y2="12" stroke="#ffffff" stroke-width="1" opacity="0.7"/>
  <line x1="26" y1="8" x2="26" y2="12" stroke="#ffffff" stroke-width="1" opacity="0.7"/>
  <line x1="32" y1="8" x2="32" y2="12" stroke="#d4af37" stroke-width="1.5" opacity="0.9"/>
  <line x1="38" y1="8" x2="38" y2="12" stroke="#ffffff" stroke-width="1" opacity="0.7"/>
  <line x1="44" y1="8" x2="44" y2="12" stroke="#ffffff" stroke-width="1" opacity="0.7"/>
  <line x1="20" y1="52" x2="20" y2="56" stroke="#ffffff" stroke-width="1" opacity="0.7"/>
  <line x1="26" y1="52" x2="26" y2="56" stroke="#ffffff" stroke-width="1" opacity="0.7"/>
  <line x1="32" y1="52" x2="32" y2="56" stroke="#d4af37" stroke-width="1.5" opacity="0.9"/>
  <line x1="38" y1="52" x2="38" y2="56" stroke="#ffffff" stroke-width="1" opacity="0.7"/>
  <line x1="44" y1="52" x2="44" y2="56" stroke="#ffffff" stroke-width="1" opacity="0.7"/>
  <!-- Spiritual memory cells -->
  <rect x="22" y="20" width="6" height="6" fill="none" stroke="#ffffff" stroke-width="0.5" opacity="0.6"/>
  <rect x="32" y="20" width="6" height="6" fill="#d4af37" opacity="0.5">
    <animate attributeName="opacity" values="0.5;0.8;0.5" dur="2s" repeatCount="indefinite"/>
  </rect>
  <rect x="42" y="20" width="6" height="6" fill="none" stroke="#ffffff" stroke-width="0.5" opacity="0.6"/>
  <rect x="22" y="30" width="6" height="6" fill="#ffffff" opacity="0.4">
    <animate attributeName="opacity" values="0.4;0.7;0.4" dur="1.5s" repeatCount="indefinite"/>
  </rect>
  <rect x="32" y="30" width="6" height="6" fill="none" stroke="#d4af37" stroke-width="0.5" opacity="0.8"/>
  <rect x="42" y="30" width="6" height="6" fill="#ffffff" opacity="0.4">
    <animate attributeName="opacity" values="0.4;0.7;0.4" dur="2.5s" repeatCount="indefinite"/>
  </rect>
  <rect x="22" y="40" width="6" height="6" fill="none" stroke="#ffffff" stroke-width="0.5" opacity="0.6"/>
  <rect x="32" y="40" width="6" height="6" fill="#d4af37" opacity="0.5">
    <animate attributeName="opacity" values="0.5;0.8;0.5" dur="3s" repeatCount="indefinite"/>
  </rect>
  <rect x="42" y="40" width="6" height="6" fill="none" stroke="#ffffff" stroke-width="0.5" opacity="0.6"/>
  <!-- Persistent glow indicator -->
  <circle cx="32" cy="6" r="2" fill="#d4af37" opacity="0.9">
    <animate attributeName="opacity" values="0.9;1;0.9" dur="1s" repeatCount="indefinite"/>
  </circle>
  <!-- Mystical infinity loop -->
  <path d="M26 58 Q32 54 38 58" fill="none" stroke="#ffffff" stroke-width="0.5" opacity="0.5"/>
  <path d="M38 58 Q32 62 26 58" fill="none" stroke="#ffffff" stroke-width="0.5" opacity="0.5"/>
</svg>