<svg viewBox="0 0 64 64" xmlns="http://www.w3.org/2000/svg">
  <defs>
    <radialGradient id="bh16" cx="50%" cy="50%" r="50%">
      <stop offset="0%" stop-color="#000"/>
      <stop offset="55%" stop-color="#1a0a00"/>
      <stop offset="100%" stop-color="#ff6600"/>
    </radialGradient>
    <radialGradient id="neuronGlow" cx="50%" cy="50%" r="50%">
      <stop offset="0%" stop-color="#ffb700"/>
      <stop offset="100%" stop-color="#ff6600"/>
    </radialGradient>
  </defs>
  <circle cx="32" cy="32" r="28" fill="url(#bh16)" stroke="#ff6600" stroke-width="2"/>
  <g opacity="0.8">
    <line x1="20" y1="16" x2="28" y2="24" stroke="#ffb700" stroke-width="1"/>
    <line x1="44" y1="16" x2="36" y2="24" stroke="#ffb700" stroke-width="1"/>
    <line x1="20" y1="48" x2="28" y2="40" stroke="#ffb700" stroke-width="1"/>
    <line x1="44" y1="48" x2="36" y2="40" stroke="#ffb700" stroke-width="1"/>
    <line x1="16" y1="32" x2="24" y2="32" stroke="#ffb700" stroke-width="1"/>
    <line x1="48" y1="32" x2="40" y2="32" stroke="#ffb700" stroke-width="1"/>
    <line x1="28" y1="24" x2="36" y2="24" stroke="#ffb700" stroke-width="1"/>
    <line x1="28" y1="40" x2="36" y2="40" stroke="#ffb700" stroke-width="1"/>
    <line x1="28" y1="24" x2="28" y2="40" stroke="#ffb700" stroke-width="1"/>
    <line x1="36" y1="24" x2="36" y2="40" stroke="#ffb700" stroke-width="1"/>
  </g>
  <circle cx="20" cy="16" r="3.5" fill="url(#neuronGlow)"/>
  <circle cx="44" cy="16" r="3.5" fill="url(#neuronGlow)"/>
  <circle cx="20" cy="48" r="3.5" fill="url(#neuronGlow)"/>
  <circle cx="44" cy="48" r="3.5" fill="url(#neuronGlow)"/>
  <circle cx="16" cy="32" r="3" fill="url(#neuronGlow)"/>
  <circle cx="48" cy="32" r="3" fill="url(#neuronGlow)"/>
  <circle cx="28" cy="24" r="4" fill="#000" stroke="#ffb700" stroke-width="1.5"/>
  <circle cx="36" cy="24" r="4" fill="#000" stroke="#ffb700" stroke-width="1.5"/>
  <circle cx="28" cy="40" r="4" fill="#000" stroke="#ffb700" stroke-width="1.5"/>
  <circle cx="36" cy="40" r="4" fill="#000" stroke="#ffb700" stroke-width="1.5"/>
  <circle cx="32" cy="32" r="5" fill="#ff6600"/>
</svg>