<svg viewBox="0 0 64 64" xmlns="http://www.w3.org/2000/svg">
  <defs>
    <radialGradient id="bh19" cx="50%" cy="50%" r="50%">
      <stop offset="0%" stop-color="#000"/>
      <stop offset="55%" stop-color="#1a0a00"/>
      <stop offset="100%" stop-color="#ff6600"/>
    </radialGradient>
    <linearGradient id="xdpGlow" x1="0%" y1="0%" x2="100%" y2="0%">
      <stop offset="0%" stop-color="#ffb700"/>
      <stop offset="100%" stop-color="#ff6600"/>
    </linearGradient>
  </defs>
  <circle cx="32" cy="32" r="28" fill="url(#bh19)" stroke="#ff6600" stroke-width="2"/>
  <path d="M12 24 L28 24 L28 40 L12 40 Z" fill="#000" stroke="url(#xdpGlow)" stroke-width="1.5"/>
  <path d="M36 24 L52 24 L52 40 L36 40 Z" fill="#000" stroke="url(#xdpGlow)" stroke-width="1.5"/>
  <path d="M28 32 L36 32" stroke="#ffb700" stroke-width="3" stroke-dasharray="2,1"/>
  <path d="M16 28 L24 28 L24 36 L16 36 Z" fill="#ff6600"/>
  <path d="M40 28 L48 28 L48 36 L40 36 Z" fill="#ff6600"/>
  <path d="M20 16 L20 22 M44 16 L44 22 M20 42 L20 48 M44 42 L44 48" stroke="#fff" stroke-width="1.5" stroke-linecap="round"/>
  <path d="M10 32 L12 32 M52 32 L54 32" stroke="#ffb700" stroke-width="2"/>
</svg>