<svg viewBox="0 0 64 64" xmlns="http://www.w3.org/2000/svg">
  <defs>
    <linearGradient id="busgrad" x1="0%" y1="0%" x2="100%" y2="0%">
      <stop offset="0%" stop-color="#00ccff"/>
      <stop offset="50%" stop-color="#39ff85"/>
      <stop offset="100%" stop-color="#00ccff"/>
    </linearGradient>
  </defs>
  <!-- Eel-shaped bus -->
  <path d="M8 32 Q16 20 24 28 T40 26 Q48 22 56 32 Q48 42 40 38 T24 36 Q16 44 8 32"
        fill="none" stroke="url(#busgrad)" stroke-width="3" stroke-linecap="round"/>
  <!-- Data flow segments -->
  <circle cx="16" cy="28" r="3" fill="#39ff85"/>
  <circle cx="32" cy="30" r="3" fill="#00ccff"/>
  <circle cx="48" cy="30" r="3" fill="#39ff85"/>
  <!-- Connection nodes as anglerfish lures -->
  <line x1="16" y1="28" x2="16" y2="18" stroke="#39ff85" stroke-width="1" opacity="0.6"/>
  <circle cx="16" cy="16" r="2" fill="#39ff85" opacity="0.8"/>
  <line x1="32" y1="30" x2="32" y2="14" stroke="#00ccff" stroke-width="1" opacity="0.6"/>
  <circle cx="32" cy="12" r="2.5" fill="#00ccff" opacity="0.8"/>
  <line x1="48" y1="30" x2="48" y2="18" stroke="#39ff85" stroke-width="1" opacity="0.6"/>
  <circle cx="48" cy="16" r="2" fill="#39ff85" opacity="0.8"/>
  <!-- Bubbles -->
  <circle cx="12" cy="48" r="2" fill="#00ccff" opacity="0.4"/>
  <circle cx="52" cy="50" r="1.5" fill="#39ff85" opacity="0.3"/>
</svg>