<svg xmlns="http://www.w3.org/2000/svg" viewBox="0 0 64 64" width="64" height="64">
  <defs>
    <!-- Magma gradient - flowing lava -->
    <linearGradient id="magmaGrad" x1="0%" y1="100%" x2="0%" y2="0%">
      <stop offset="0%" style="stop-color:#ff4500;stop-opacity:1" />
      <stop offset="50%" style="stop-color:#ff6600;stop-opacity:1" />
      <stop offset="100%" style="stop-color:#ffb700;stop-opacity:1" />
    </linearGradient>

    <!-- Intense fire gradient -->
    <linearGradient id="fireGrad" x1="0%" y1="100%" x2="0%" y2="0%">
      <stop offset="0%" style="stop-color:#8b0000;stop-opacity:1" />
      <stop offset="30%" style="stop-color:#ff4500;stop-opacity:1" />
      <stop offset="70%" style="stop-color:#ff6600;stop-opacity:1" />
      <stop offset="100%" style="stop-color:#ffb700;stop-opacity:1" />
    </linearGradient>

    <!-- Ember glow -->
    <radialGradient id="emberGlow" cx="50%" cy="50%" r="50%">
      <stop offset="0%" style="stop-color:#ffb700;stop-opacity:0.8" />
      <stop offset="50%" style="stop-color:#ff6600;stop-opacity:0.5" />
      <stop offset="100%" style="stop-color:#ff4500;stop-opacity:0" />
    </radialGradient>

    <!-- Heat haze -->
    <filter id="heatGlow" x="-50%" y="-50%" width="200%" height="200%">
      <feGaussianBlur stdDeviation="1.5" result="blur"/>
      <feMerge>
        <feMergeNode in="blur"/>
        <feMergeNode in="SourceGraphic"/>
      </feMerge>
    </filter>

    <!-- Intense fire blur -->
    <filter id="fireBlur" x="-50%" y="-50%" width="200%" height="200%">
      <feGaussianBlur stdDeviation="2" result="blur"/>
      <feMerge>
        <feMergeNode in="blur"/>
        <feMergeNode in="SourceGraphic"/>
      </feMerge>
    </filter>
  </defs>

  <!-- Background - volcanic rock -->
  <circle cx="32" cy="32" r="30" fill="#1a0a05" stroke="#ff4500" stroke-width="2"/>


  <!-- DPDK Network Bypass - Lightning through fire -->
  <path d="M12 20 L20 20 L16 32 L24 32 L18 48 L32 36 L28 48 L44 32 L36 32 L42 20 L52 20"
        fill="none" stroke="url(#magmaGrad)" stroke-width="3" stroke-linejoin="round" filter="url(#fireBlur)"/>
  <!-- Speed lines -->
  <path d="M8 24 L12 24 M52 28 L56 28 M8 36 L12 36 M52 40 L56 40" stroke="#ff6600" stroke-width="2" stroke-linecap="round"/>
  <!-- Ember particles -->
  <circle cx="20" cy="16" r="1.5" fill="#ffb700"/>
  <circle cx="44" cy="14" r="1" fill="#ffb700"/>
  <circle cx="32" cy="12" r="1.2" fill="#ff6600"/>

</svg>