<svg xmlns="http://www.w3.org/2000/svg" viewBox="0 0 64 64" width="64" height="64">
  <defs>
    <!-- Magma gradient - flowing lava -->
    <linearGradient id="magmaGrad" x1="0%" y1="100%" x2="0%" y2="0%">
      <stop offset="0%" style="stop-color:#ff4500;stop-opacity:1" />
      <stop offset="50%" style="stop-color:#ff6600;stop-opacity:1" />
      <stop offset="100%" style="stop-color:#ffb700;stop-opacity:1" />
    </linearGradient>

    <!-- Intense fire gradient -->
    <linearGradient id="fireGrad" x1="0%" y1="100%" x2="0%" y2="0%">
      <stop offset="0%" style="stop-color:#8b0000;stop-opacity:1" />
      <stop offset="30%" style="stop-color:#ff4500;stop-opacity:1" />
      <stop offset="70%" style="stop-color:#ff6600;stop-opacity:1" />
      <stop offset="100%" style="stop-color:#ffb700;stop-opacity:1" />
    </linearGradient>

    <!-- Ember glow -->
    <radialGradient id="emberGlow" cx="50%" cy="50%" r="50%">
      <stop offset="0%" style="stop-color:#ffb700;stop-opacity:0.8" />
      <stop offset="50%" style="stop-color:#ff6600;stop-opacity:0.5" />
      <stop offset="100%" style="stop-color:#ff4500;stop-opacity:0" />
    </radialGradient>

    <!-- Heat haze -->
    <filter id="heatGlow" x="-50%" y="-50%" width="200%" height="200%">
      <feGaussianBlur stdDeviation="1.5" result="blur"/>
      <feMerge>
        <feMergeNode in="blur"/>
        <feMergeNode in="SourceGraphic"/>
      </feMerge>
    </filter>

    <!-- Intense fire blur -->
    <filter id="fireBlur" x="-50%" y="-50%" width="200%" height="200%">
      <feGaussianBlur stdDeviation="2" result="blur"/>
      <feMerge>
        <feMergeNode in="blur"/>
        <feMergeNode in="SourceGraphic"/>
      </feMerge>
    </filter>
  </defs>

  <!-- Background - volcanic rock -->
  <circle cx="32" cy="32" r="30" fill="#1a0a05" stroke="#ff4500" stroke-width="2"/>


  <!-- Thread Scheduler - Rotating magma gears -->
  <circle cx="32" cy="32" r="16" fill="none" stroke="url(#magmaGrad)" stroke-width="2.5" filter="url(#heatGlow)"/>
  <!-- Gear teeth as flames -->
  <path d="M32 12 L32 16 M32 48 L32 52 M12 32 L16 32 M48 32 L52 32" stroke="#ff6600" stroke-width="3" stroke-linecap="round"/>
  <path d="M18 18 L21 21 M43 43 L46 46 M46 18 L43 21 M21 43 L18 46" stroke="#ff4500" stroke-width="2.5" stroke-linecap="round"/>
  <!-- Central spinner -->
  <circle cx="32" cy="32" r="8" fill="url(#fireGrad)"/>
  <path d="M32 26 L34 32 L32 38 L30 32 Z" fill="#ffb700"/>

</svg>