<svg viewBox="0 0 64 64" xmlns="http://www.w3.org/2000/svg">
  <!-- Quantum Computing - Radioactive superposition -->
  <!-- Quantum orbital rings -->
  <ellipse cx="32" cy="32" rx="26" ry="10" fill="none" stroke="currentColor" stroke-width="2" opacity="0.6"/>
  <ellipse cx="32" cy="32" rx="26" ry="10" fill="none" stroke="currentColor" stroke-width="2" transform="rotate(60 32 32)" opacity="0.6"/>
  <ellipse cx="32" cy="32" rx="26" ry="10" fill="none" stroke="currentColor" stroke-width="2" transform="rotate(120 32 32)" opacity="0.6"/>
  <!-- Central quantum nucleus -->
  <circle cx="32" cy="32" r="10" fill="currentColor"/>
  <circle cx="32" cy="32" r="6" fill="#000"/>
  <!-- Biohazard quantum state -->
  <path d="M32 28c-2 0-4 1-5 3 1 0 2 0 3 0-1 1-1 3-1 4-2-1-3-2-3-4 0 2-2 4-4 4 2 2 5 2 7 0 0-1 1-1 0-2 1 1 3 1 4 0 1 0 1 1 0 2 2 2 5 2 7 0-2 0-4-2-4-4 0 2-1 3-3 4 0-1 0-3-1-4 1 0 2 0 3 0-1-2-3-3-5-3z" fill="currentColor"/>
  <!-- Qubit particles in superposition -->
  <circle cx="32" cy="6" r="3" fill="currentColor"/>
  <circle cx="56" cy="44" r="3" fill="currentColor"/>
  <circle cx="8" cy="44" r="3" fill="currentColor"/>
  <!-- Quantum uncertainty clouds -->
  <ellipse cx="48" cy="16" rx="4" ry="2" fill="currentColor" opacity="0.4"/>
  <ellipse cx="16" cy="16" rx="4" ry="2" fill="currentColor" opacity="0.4"/>
  <ellipse cx="48" cy="48" rx="4" ry="2" fill="currentColor" opacity="0.4"/>
  <ellipse cx="16" cy="48" rx="4" ry="2" fill="currentColor" opacity="0.4"/>
  <!-- Entanglement connections -->
  <path d="M32 6c0 10 8 18 18 18M32 58c0-10-8-18-18-18M6 32c10 0 18-8 18-18M58 32c-10 0-18 8-18 18" stroke="currentColor" stroke-width="1" fill="none" opacity="0.3"/>
</svg>