<svg viewBox="0 0 64 64" xmlns="http://www.w3.org/2000/svg">
  <!-- Model Registry - Toxic catalog storage -->
  <!-- Stacked contaminated containers -->
  <path d="M12 16c0-2 2-4 4-4h32c2 0 4 2 4 4v8c0 2-2 4-4 4H16c-2 0-4-2-4-4v-8z" fill="currentColor" opacity="0.9"/>
  <path d="M12 32c0-2 2-4 4-4h32c2 0 4 2 4 4v8c0 2-2 4-4 4H16c-2 0-4-2-4-4v-8z" fill="currentColor" opacity="0.9"/>
  <path d="M12 48c0-2 2-4 4-4h32c2 0 4 2 4 4v4c0 2-2 4-4 4H16c-2 0-4-2-4-4v-4z" fill="currentColor" opacity="0.9"/>
  <!-- Container labels -->
  <rect x="18" y="18" width="20" height="4" rx="1" fill="#000"/>
  <rect x="18" y="34" width="20" height="4" rx="1" fill="#000"/>
  <rect x="18" y="50" width="20" height="4" rx="1" fill="#000"/>
  <!-- Biohazard indicators -->
  <circle cx="46" cy="22" r="3" fill="#000"/>
  <circle cx="46" cy="38" r="3" fill="#000"/>
  <circle cx="46" cy="54" r="3" fill="#000"/>
  <!-- Radiation symbols on containers -->
  <path d="M46 20c-1 0-2 0-2 1 0 0 1 0 1 0 0 0 0 1 0 1 0 0-1 0-1-1 0 1 0 1-1 2 1 1 2 1 3 0 0 0 0 0 0 0 0 0 1 0 1 0 0 0 0 0 0 0 1 1 2 1 3 0-1 0-1-1-1-2 0 1 0 1-1 1 0 0 0-1 0-1 0 0 1 0 1 0-1-1-1-1-2-1z" fill="currentColor"/>
  <path d="M46 36c-1 0-2 0-2 1 0 0 1 0 1 0 0 0 0 1 0 1 0 0-1 0-1-1 0 1 0 1-1 2 1 1 2 1 3 0 0 0 0 0 0 0 0 0 1 0 1 0 0 0 0 0 0 0 1 1 2 1 3 0-1 0-1-1-1-2 0 1 0 1-1 1 0 0 0-1 0-1 0 0 1 0 1 0-1-1-1-1-2-1z" fill="currentColor"/>
  <path d="M46 52c-1 0-2 0-2 1 0 0 1 0 1 0 0 0 0 1 0 1 0 0-1 0-1-1 0 1 0 1-1 2 1 1 2 1 3 0 0 0 0 0 0 0 0 0 1 0 1 0 0 0 0 0 0 0 1 1 2 1 3 0-1 0-1-1-1-2 0 1 0 1-1 1 0 0 0-1 0-1 0 0 1 0 1 0-1-1-1-1-2-1z" fill="currentColor"/>
  <!-- Toxic leak -->
  <path d="M8 44c0 0 2 4 2 8 0 2-1 4-2 4" stroke="currentColor" stroke-width="2" fill="none" opacity="0.6"/>
  <circle cx="8" cy="58" r="2" fill="currentColor" opacity="0.5"/>
</svg>