<svg viewBox="0 0 64 64" xmlns="http://www.w3.org/2000/svg">
  <!-- XDP Network - eBPF packet contamination -->
  <!-- Network packet frame -->
  <rect x="4" y="16" width="56" height="32" rx="2" fill="currentColor" opacity="0.8"/>
  <rect x="8" y="20" width="48" height="24" rx="1" fill="#000"/>
  <!-- Packet header sections -->
  <rect x="12" y="24" width="12" height="16" rx="1" fill="currentColor" opacity="0.6"/>
  <rect x="28" y="24" width="12" height="16" rx="1" fill="currentColor" opacity="0.6"/>
  <rect x="44" y="24" width="8" height="16" rx="1" fill="currentColor" opacity="0.6"/>
  <!-- XDP fast path (bypass arrow) -->
  <path d="M16 32h32" stroke="currentColor" stroke-width="3" stroke-linecap="round"/>
  <path d="M44 26l8 6-8 6" fill="currentColor"/>
  <!-- Biohazard in header -->
  <circle cx="18" cy="32" r="4" fill="#000"/>
  <path d="M18 29c-1 0-2 0-2 1 0 0 1 0 1 0 0 0 0 1 0 1 0 0-1 0-1-1 0 1 0 1-1 2 1 0 2 0 2 0 0 0 0 0 0 0 0 0 1 0 1 0 0 0 0 0 0 0 1 0 2 0 2 0-1 0-1-1-1-2 0 1 0 1-1 1 0 0 0-1 0-1 0 0 1 0 1 0-1 0-1-1-2-1z" fill="currentColor"/>
  <!-- Kernel bypass indicator -->
  <path d="M4 12c8-4 16-4 24-4h8c8 0 16 0 24 4" stroke="currentColor" stroke-width="2" fill="none" opacity="0.5"/>
  <text x="32" y="12" text-anchor="middle" font-size="5" fill="currentColor">KERNEL BYPASS</text>
  <!-- Packet flow arrows -->
  <path d="M32 8v4M32 52v4" stroke="currentColor" stroke-width="2" stroke-linecap="round"/>
  <circle cx="32" cy="6" r="2" fill="currentColor"/>
  <circle cx="32" cy="58" r="2" fill="currentColor"/>
  <!-- Toxic drop -->
  <path d="M56 48c0 0 2 4 2 6 0 2-1 4-2 4s-2-2-2-4c0-2 2-6 2-6z" fill="currentColor" opacity="0.7"/>
</svg>