<svg viewBox="0 0 64 64" xmlns="http://www.w3.org/2000/svg">
  <!-- Giant isopod as hypervisor shell -->
  <ellipse cx="32" cy="34" rx="22" ry="14" fill="#001a2e" stroke="#00ccff" stroke-width="2"/>
  <!-- Segmented shell plates representing VM isolation -->
  <path d="M16 34 Q20 26 28 28" fill="none" stroke="#39ff85" stroke-width="1.5"/>
  <path d="M28 28 Q32 24 36 28" fill="none" stroke="#39ff85" stroke-width="1.5"/>
  <path d="M36 28 Q44 26 48 34" fill="none" stroke="#39ff85" stroke-width="1.5"/>
  <path d="M16 34 Q20 42 28 40" fill="none" stroke="#39ff85" stroke-width="1.5"/>
  <path d="M28 40 Q32 44 36 40" fill="none" stroke="#39ff85" stroke-width="1.5"/>
  <path d="M36 40 Q44 42 48 34" fill="none" stroke="#39ff85" stroke-width="1.5"/>
  <!-- VM instances as bioluminescent spots -->
  <circle cx="22" cy="30" r="2.5" fill="#00ccff" opacity="0.7"/>
  <circle cx="32" cy="28" r="2.5" fill="#39ff85" opacity="0.7"/>
  <circle cx="42" cy="30" r="2.5" fill="#00ccff" opacity="0.7"/>
  <circle cx="22" cy="38" r="2.5" fill="#39ff85" opacity="0.7"/>
  <circle cx="32" cy="40" r="2.5" fill="#00ccff" opacity="0.7"/>
  <circle cx="42" cy="38" r="2.5" fill="#39ff85" opacity="0.7"/>
  <!-- Legs as resource connections -->
  <line x1="14" y1="28" x2="8" y2="22" stroke="#00ccff" stroke-width="1"/>
  <line x1="12" y1="34" x2="6" y2="34" stroke="#00ccff" stroke-width="1"/>
  <line x1="14" y1="40" x2="8" y2="46" stroke="#00ccff" stroke-width="1"/>
  <line x1="50" y1="28" x2="56" y2="22" stroke="#39ff85" stroke-width="1"/>
  <line x1="52" y1="34" x2="58" y2="34" stroke="#39ff85" stroke-width="1"/>
  <line x1="50" y1="40" x2="56" y2="46" stroke="#39ff85" stroke-width="1"/>
  <!-- Bubbles -->
  <circle cx="10" cy="16" r="2" fill="#39ff85" opacity="0.5"/>
  <circle cx="54" cy="14" r="1.5" fill="#00ccff" opacity="0.4"/>
</svg>