<svg xmlns="http://www.w3.org/2000/svg" viewBox="0 0 64 64" width="64" height="64">
  <defs>
    <linearGradient id="purpleGrad" x1="0%" y1="0%" x2="100%" y2="0%">
      <stop offset="0%" style="stop-color:#a78bfa"/>
      <stop offset="100%" style="stop-color:#8b5cf6"/>
    </linearGradient>
    <linearGradient id="cyanGrad" x1="0%" y1="0%" x2="100%" y2="0%">
      <stop offset="0%" style="stop-color:#5eead4"/>
      <stop offset="100%" style="stop-color:#00d4aa"/>
    </linearGradient>
    <linearGradient id="silverGrad" x1="0%" y1="0%" x2="0%" y2="100%">
      <stop offset="0%" style="stop-color:#e2e8f0"/>
      <stop offset="100%" style="stop-color:#94a3b8"/>
    </linearGradient>
  </defs>
  <!-- Orbital catalog ring -->
  <ellipse cx="32" cy="32" rx="28" ry="10" fill="none" stroke="url(#purpleGrad)" stroke-width="0.5" opacity="0.5" transform="rotate(-15 32 32)"/>
  <!-- Database/registry cylinder -->
  <ellipse cx="32" cy="18" rx="14" ry="5" fill="none" stroke="url(#silverGrad)" stroke-width="1.5"/>
  <path d="M18 18 L18 44 Q32 52 46 44 L46 18" fill="none" stroke="url(#silverGrad)" stroke-width="1.5"/>
  <ellipse cx="32" cy="44" rx="14" ry="5" fill="none" stroke="url(#silverGrad)" stroke-width="1.5"/>
  <!-- Model layers -->
  <ellipse cx="32" cy="26" rx="14" ry="5" fill="none" stroke="url(#purpleGrad)" stroke-width="1"/>
  <ellipse cx="32" cy="34" rx="14" ry="5" fill="none" stroke="url(#cyanGrad)" stroke-width="1"/>
  <!-- Model indicators -->
  <circle cx="26" cy="26" r="1.5" fill="#8b5cf6"/>
  <circle cx="32" cy="26" r="1.5" fill="#a78bfa"/>
  <circle cx="38" cy="26" r="1.5" fill="#8b5cf6"/>
  <circle cx="26" cy="34" r="1.5" fill="#00d4aa"/>
  <circle cx="32" cy="34" r="1.5" fill="#5eead4"/>
  <circle cx="38" cy="34" r="1.5" fill="#00d4aa"/>
  <!-- Stars -->
  <circle cx="8" cy="10" r="0.6" fill="#e2e8f0" opacity="0.7"/>
  <circle cx="56" cy="14" r="0.5" fill="#5eead4" opacity="0.6"/>
  <circle cx="54" cy="54" r="0.7" fill="#a78bfa" opacity="0.5"/>
</svg>