<svg viewBox="0 0 64 64" xmlns="http://www.w3.org/2000/svg">
  <!-- Biohazard Bus - Contamination transport pathways -->
  <!-- Central contamination core -->
  <circle cx="32" cy="32" r="10" fill="currentColor"/>
  <circle cx="32" cy="32" r="6" fill="#000"/>
  <!-- Biohazard symbol in center -->
  <path d="M32 28c-2 0-4 1-5 3 1 0 3 0 3 0-1 1-1 3-1 5-2-1-3-2-3-5 0 2-1 4-3 5 2 2 5 2 7 0 0-1 0-2 0-2 1 1 3 1 4 0 1 1 1 2 0 2 2 2 5 2 7 0-2-1-3-3-3-5 0 3-1 4-3 5 0-2 0-4-1-5 0 0 2 0 3 0-1-2-3-3-5-3z" fill="currentColor"/>
  <!-- Organic bus routes -->
  <path d="M32 8c0 0-4 8-4 14M32 8c0 0 4 8 4 14" stroke="currentColor" stroke-width="3" fill="none" stroke-linecap="round" opacity="0.9"/>
  <path d="M32 56c0 0-4-8-4-14M32 56c0 0 4-8 4-14" stroke="currentColor" stroke-width="3" fill="none" stroke-linecap="round" opacity="0.9"/>
  <path d="M8 32c0 0 8-4 14-4M8 32c0 0 8 4 14 4" stroke="currentColor" stroke-width="3" fill="none" stroke-linecap="round" opacity="0.9"/>
  <path d="M56 32c0 0-8-4-14-4M56 32c0 0-8 4-14 4" stroke="currentColor" stroke-width="3" fill="none" stroke-linecap="round" opacity="0.9"/>
  <!-- Toxic nodes -->
  <circle cx="32" cy="8" r="4" fill="currentColor"/>
  <circle cx="32" cy="56" r="4" fill="currentColor"/>
  <circle cx="8" cy="32" r="4" fill="currentColor"/>
  <circle cx="56" cy="32" r="4" fill="currentColor"/>
  <!-- Slime drips -->
  <path d="M30 56v4c0 1 1 2 2 2s2-1 2-2v-4" fill="currentColor" opacity="0.7"/>
  <path d="M6 30v4c0 1 1 2 2 2s2-1 2-2v-4" fill="currentColor" opacity="0.7"/>
</svg>