<svg viewBox="0 0 64 64" xmlns="http://www.w3.org/2000/svg">
  <!-- JIT Compiler - Mutating code organism -->
  <!-- Organic outer shell -->
  <path d="M32 4c-15 0-28 12-28 28 0 10 5 19 13 24 2-3 3-7 3-11 0-8-4-14-4-14s6 4 12 4 12-4 12-4-4 6-4 14c0 4 1 8 3 11 8-5 13-14 13-24 0-16-13-28-28-28z" fill="currentColor" opacity="0.9"/>
  <!-- Inner mutating core -->
  <ellipse cx="32" cy="30" rx="10" ry="8" fill="#000"/>
  <!-- DNA/code strands -->
  <path d="M26 26c2 2 4 2 6 0s4-2 6 0M26 34c2-2 4-2 6 0s4 2 6 0" stroke="currentColor" stroke-width="1.5" fill="none" stroke-linecap="round"/>
  <!-- Radiation particles -->
  <circle cx="20" cy="16" r="2" fill="currentColor"/>
  <circle cx="44" cy="16" r="2" fill="currentColor"/>
  <circle cx="32" cy="12" r="2" fill="currentColor"/>
  <!-- Toxic transformation arrows -->
  <path d="M16 48l4-4M48 48l-4-4" stroke="currentColor" stroke-width="2" stroke-linecap="round"/>
  <path d="M18 44l-2 4h4zM46 44l-2 4h4z" fill="currentColor"/>
  <!-- Slime bubbles -->
  <circle cx="10" cy="52" r="3" fill="currentColor" opacity="0.6"/>
  <circle cx="54" cy="50" r="2" fill="currentColor" opacity="0.5"/>
</svg>