<svg viewBox="0 0 64 64" xmlns="http://www.w3.org/2000/svg">
  <!-- DPDK Network Bypass - Radioactive pipeline -->
  <!-- Bypass pipeline with organic texture -->
  <path d="M8 20c0-4 4-8 8-8h32c4 0 8 4 8 8v24c0 4-4 8-8 8H16c-4 0-8-4-8-8V20z" fill="currentColor" opacity="0.8"/>
  <path d="M12 22c0-3 2-5 5-5h30c3 0 5 2 5 5v20c0 3-2 5-5 5H17c-3 0-5-2-5-5V22z" fill="#000"/>
  <!-- Lightning-fast bypass arrows -->
  <path d="M18 32h8l-3-6 10 8-10 8 3-6h-8" fill="currentColor"/>
  <path d="M38 32h8" stroke="currentColor" stroke-width="3" stroke-linecap="round"/>
  <!-- Radioactive symbols -->
  <circle cx="48" cy="16" r="5" fill="currentColor"/>
  <path d="M48 12c-2 0-3 1-4 2 1 0 2 0 2 0-1 1-1 2 0 3-1 0-2-1-2-2 0 2-1 3-2 3 2 2 4 2 6 0 0 0 0-1 0-1 1 1 2 1 3 0 1 1 1 1 0 1 2 2 4 2 6 0-1 0-2-1-2-3 0 1-1 2-2 2 0-1 0-2 0-3 0 0 1 0 2 0-1-1-2-2-4-2z" fill="#000"/>
  <!-- Toxic warning stripes -->
  <path d="M8 48l4-4M16 52l4-4M24 48l4-4M32 52l4-4M40 48l4-4M48 52l4-4" stroke="currentColor" stroke-width="2" opacity="0.7"/>
  <!-- Contamination particles -->
  <circle cx="6" cy="12" r="2" fill="currentColor"/>
  <circle cx="58" cy="56" r="3" fill="currentColor"/>
</svg>