<svg viewBox="0 0 64 64" xmlns="http://www.w3.org/2000/svg">
  <!-- Hardware Entropy - Radioactive randomness source -->
  <!-- Central radiation source -->
  <circle cx="32" cy="32" r="12" fill="currentColor"/>
  <circle cx="32" cy="32" r="8" fill="#000"/>
  <!-- Chaos core -->
  <path d="M32 26c-3 0-5 2-6 4 2-1 3 0 4 1-2 2-2 5 0 7-2-1-4-3-4-6 0 3-2 5-4 6 3 3 7 3 10 0 0-1 1-2 0-3 2 2 4 2 6 0 2 2 2 3 0 3 3 3 7 3 10 0-2-1-4-3-4-6 0 3-2 5-4 6 2-2 2-5 0-7 1-1 2-2 4-1-1-2-3-4-6-4z" fill="currentColor"/>
  <!-- Random particle emission -->
  <circle cx="32" cy="8" r="3" fill="currentColor" opacity="0.9"/>
  <circle cx="32" cy="56" r="3" fill="currentColor" opacity="0.9"/>
  <circle cx="8" cy="32" r="3" fill="currentColor" opacity="0.9"/>
  <circle cx="56" cy="32" r="3" fill="currentColor" opacity="0.9"/>
  <circle cx="14" cy="14" r="2" fill="currentColor" opacity="0.7"/>
  <circle cx="50" cy="14" r="2" fill="currentColor" opacity="0.7"/>
  <circle cx="14" cy="50" r="2" fill="currentColor" opacity="0.7"/>
  <circle cx="50" cy="50" r="2" fill="currentColor" opacity="0.7"/>
  <!-- Decay trails -->
  <path d="M32 8c0-3 1-6 3-8M32 56c0 3 1 6 3 8M8 32c-3 0-6-1-8-3M56 32c3 0 6 1 8 3" stroke="currentColor" stroke-width="1" fill="none" opacity="0.6"/>
  <!-- Quantum uncertainty blobs -->
  <ellipse cx="22" cy="22" rx="3" ry="2" fill="currentColor" opacity="0.4"/>
  <ellipse cx="42" cy="42" rx="3" ry="2" fill="currentColor" opacity="0.4"/>
</svg>