<svg viewBox="0 0 64 64" xmlns="http://www.w3.org/2000/svg">
  <!-- Thread Scheduler - Time-based contamination -->
  <!-- Clock face -->
  <circle cx="32" cy="32" r="24" fill="currentColor" opacity="0.2"/>
  <circle cx="32" cy="32" r="20" fill="none" stroke="currentColor" stroke-width="3"/>
  <!-- Clock divisions -->
  <path d="M32 16v4M32 44v4M16 32h4M44 32h4" stroke="currentColor" stroke-width="2" stroke-linecap="round"/>
  <!-- Clock hands -->
  <path d="M32 32l-8-8" stroke="currentColor" stroke-width="3" stroke-linecap="round"/>
  <path d="M32 32l10-4" stroke="currentColor" stroke-width="2" stroke-linecap="round"/>
  <!-- Biohazard center -->
  <circle cx="32" cy="32" r="8" fill="currentColor"/>
  <circle cx="32" cy="32" r="5" fill="#000"/>
  <path d="M32 29c-1 0-3 1-3 2 1 0 2 0 2 0-1 1 0 2 0 3-1 0-2-1-2-2 0 1-1 3-2 3 2 2 3 2 5 0 0 0 0-1 0-1 1 1 2 1 3 0 1 0 1 1 0 1 2 2 3 2 5 0-1 0-2-2-2-3 0 1-1 2-2 2 0-1 0-2 0-3 0 0 1 0 2 0-1-1-2-2-3-2z" fill="currentColor"/>
  <!-- Scheduled threads -->
  <circle cx="12" cy="12" r="4" fill="currentColor"/>
  <circle cx="52" cy="12" r="4" fill="currentColor"/>
  <circle cx="12" cy="52" r="4" fill="currentColor"/>
  <circle cx="52" cy="52" r="4" fill="currentColor"/>
  <!-- Thread connections -->
  <path d="M14 14l6 6M50 14l-6 6M14 50l6-6M50 50l-6-6" stroke="currentColor" stroke-width="1.5" stroke-linecap="round" opacity="0.6"/>
  <!-- Time quantum ticks -->
  <circle cx="32" cy="8" r="2" fill="currentColor"/>
  <circle cx="56" cy="32" r="2" fill="currentColor"/>
  <circle cx="32" cy="56" r="2" fill="currentColor"/>
  <circle cx="8" cy="32" r="2" fill="currentColor"/>
</svg>