<svg viewBox="0 0 64 64" xmlns="http://www.w3.org/2000/svg">
  <!-- Neural Network - Bio-organic neuron web -->
  <!-- Neural nodes -->
  <circle cx="32" cy="10" r="5" fill="currentColor"/>
  <circle cx="12" cy="28" r="5" fill="currentColor"/>
  <circle cx="52" cy="28" r="5" fill="currentColor"/>
  <circle cx="20" cy="52" r="5" fill="currentColor"/>
  <circle cx="44" cy="52" r="5" fill="currentColor"/>
  <circle cx="32" cy="34" r="6" fill="currentColor"/>
  <!-- Biohazard core -->
  <circle cx="32" cy="34" r="3" fill="#000"/>
  <path d="M32 32c-1 0-2 0-2 1 0 0 1 0 1 0 0 0 0 1 0 1 0 0-1 0-1-1 0 1 0 1-1 2 1 0 2 0 2 0 0 0 0 0 0 0 0 0 1 0 1 0 0 0 0 0 0 0 1 0 2 0 2 0-1 0-1-1-1-2 0 1 0 1-1 1 0 0 0-1 0-1 0 0 1 0 1 0-1 0-1-1-2-1z" fill="currentColor"/>
  <!-- Synaptic connections (organic) -->
  <path d="M32 15c0 5-8 8-13 8" stroke="currentColor" stroke-width="2" fill="none" opacity="0.7"/>
  <path d="M32 15c0 5 8 8 13 8" stroke="currentColor" stroke-width="2" fill="none" opacity="0.7"/>
  <path d="M16 32c2 8 8 12 12 16" stroke="currentColor" stroke-width="2" fill="none" opacity="0.7"/>
  <path d="M48 32c-2 8-8 12-12 16" stroke="currentColor" stroke-width="2" fill="none" opacity="0.7"/>
  <path d="M24 50c4-2 8-2 12 0" stroke="currentColor" stroke-width="2" fill="none" opacity="0.7"/>
  <path d="M32 16v14" stroke="currentColor" stroke-width="2" fill="none" opacity="0.8"/>
  <!-- Pulse indicators -->
  <circle cx="12" cy="28" r="2" fill="#000"/>
  <circle cx="52" cy="28" r="2" fill="#000"/>
  <circle cx="20" cy="52" r="2" fill="#000"/>
  <circle cx="44" cy="52" r="2" fill="#000"/>
  <circle cx="32" cy="10" r="2" fill="#000"/>
  <!-- Toxic growth -->
  <path d="M6 20c2-2 4-2 6 0M52 12c2-2 4-2 6 0M6 44c2 2 4 2 6 0" stroke="currentColor" stroke-width="1.5" fill="none" opacity="0.5"/>
</svg>