<svg viewBox="0 0 64 64" xmlns="http://www.w3.org/2000/svg">
  <!-- Setup Wizard - Contaminated guidance -->
  <!-- Wizard hat -->
  <path d="M32 4L8 48h48L32 4z" fill="currentColor" opacity="0.9"/>
  <ellipse cx="32" cy="48" rx="24" ry="6" fill="currentColor"/>
  <!-- Biohazard on hat -->
  <circle cx="32" cy="28" r="8" fill="#000"/>
  <path d="M32 24c-2 0-4 1-5 3 1 0 2 0 3 0-1 1-1 3-1 4-2-1-3-2-3-4 0 2-2 4-4 4 2 2 5 2 7 0 0-1 1-1 0-2 1 1 3 1 4 0 1 0 1 1 0 2 2 2 5 2 7 0-2 0-4-2-4-4 0 2-1 3-3 4 0-1 0-3-1-4 1 0 2 0 3 0-1-2-3-3-5-3z" fill="currentColor"/>
  <!-- Magic sparkles (toxic) -->
  <path d="M8 16l4 4M56 16l-4 4M8 32h6M50 32h6" stroke="currentColor" stroke-width="2" stroke-linecap="round"/>
  <circle cx="6" cy="12" r="2" fill="currentColor"/>
  <circle cx="58" cy="12" r="2" fill="currentColor"/>
  <circle cx="4" cy="32" r="2" fill="currentColor"/>
  <circle cx="60" cy="32" r="2" fill="currentColor"/>
  <!-- Wizard face/eyes -->
  <circle cx="24" cy="42" r="3" fill="#000"/>
  <circle cx="40" cy="42" r="3" fill="#000"/>
  <!-- Star wand -->
  <path d="M48 40l8-8" stroke="currentColor" stroke-width="3" stroke-linecap="round"/>
  <path d="M56 28l2 4 4 2-4 2-2 4-2-4-4-2 4-2 2-4z" fill="currentColor"/>
  <!-- Slime base -->
  <ellipse cx="32" cy="58" rx="16" ry="4" fill="currentColor" opacity="0.6"/>
</svg>