<svg viewBox="0 0 64 64" xmlns="http://www.w3.org/2000/svg">
  <defs>
    <radialGradient id="bh6" cx="50%" cy="50%" r="50%">
      <stop offset="0%" stop-color="#000"/>
      <stop offset="55%" stop-color="#1a0a00"/>
      <stop offset="100%" stop-color="#ff6600"/>
    </radialGradient>
    <radialGradient id="particleGlow" cx="50%" cy="50%" r="50%">
      <stop offset="0%" stop-color="#fff"/>
      <stop offset="100%" stop-color="#ffb700"/>
    </radialGradient>
  </defs>
  <circle cx="32" cy="32" r="28" fill="url(#bh6)" stroke="#ff6600" stroke-width="2"/>
  <circle cx="32" cy="32" r="10" fill="#000" stroke="#ffb700" stroke-width="2"/>
  <g opacity="0.9">
    <circle cx="32" cy="8" r="2.5" fill="url(#particleGlow)"/>
    <circle cx="32" cy="56" r="2.5" fill="url(#particleGlow)"/>
    <circle cx="8" cy="32" r="2.5" fill="url(#particleGlow)"/>
    <circle cx="56" cy="32" r="2.5" fill="url(#particleGlow)"/>
    <circle cx="15" cy="15" r="2" fill="#ff6600"/>
    <circle cx="49" cy="15" r="2" fill="#ff6600"/>
    <circle cx="15" cy="49" r="2" fill="#ff6600"/>
    <circle cx="49" cy="49" r="2" fill="#ff6600"/>
  </g>
  <path d="M22 32 Q26 26 32 26 Q38 26 42 32 Q38 38 32 38 Q26 38 22 32" fill="none" stroke="#ffb700" stroke-width="1.5" opacity="0.6"/>
  <path d="M12 32 Q20 20 32 20 Q44 20 52 32" fill="none" stroke="#ff6600" stroke-width="1" opacity="0.4"/>
</svg>