<svg viewBox="0 0 64 64" xmlns="http://www.w3.org/2000/svg">
  <defs>
    <radialGradient id="bh8" cx="50%" cy="50%" r="50%">
      <stop offset="0%" stop-color="#000"/>
      <stop offset="55%" stop-color="#1a0a00"/>
      <stop offset="100%" stop-color="#ff6600"/>
    </radialGradient>
    <linearGradient id="morphGlow" x1="0%" y1="0%" x2="100%" y2="100%">
      <stop offset="0%" stop-color="#ffb700"/>
      <stop offset="100%" stop-color="#ff6600"/>
    </linearGradient>
  </defs>
  <circle cx="32" cy="32" r="28" fill="url(#bh8)" stroke="#ff6600" stroke-width="2"/>
  <path d="M32 8 Q48 16 48 32 Q48 48 32 56 Q16 48 16 32 Q16 16 32 8" fill="none" stroke="url(#morphGlow)" stroke-width="2" opacity="0.6"/>
  <path d="M32 12 Q44 20 44 32 Q44 44 32 52 Q20 44 20 32 Q20 20 32 12" fill="none" stroke="#ffb700" stroke-width="1.5" opacity="0.4"/>
  <path d="M18 32 Q24 20 32 20 Q40 20 46 32 Q40 44 32 44 Q24 44 18 32" fill="none" stroke="#fff" stroke-width="2" stroke-dasharray="3,3"/>
  <circle cx="32" cy="32" r="6" fill="#ff6600"/>
  <path d="M28 32 L36 32 M32 28 L32 36" stroke="#000" stroke-width="2" stroke-linecap="round"/>
</svg>