<svg viewBox="0 0 64 64" xmlns="http://www.w3.org/2000/svg">
  <defs>
    <radialGradient id="bh18" cx="50%" cy="50%" r="50%">
      <stop offset="0%" stop-color="#000"/>
      <stop offset="55%" stop-color="#1a0a00"/>
      <stop offset="100%" stop-color="#ff6600"/>
    </radialGradient>
    <linearGradient id="magicGlow" x1="0%" y1="0%" x2="100%" y2="100%">
      <stop offset="0%" stop-color="#fff"/>
      <stop offset="100%" stop-color="#ffb700"/>
    </linearGradient>
  </defs>
  <circle cx="32" cy="32" r="28" fill="url(#bh18)" stroke="#ff6600" stroke-width="2"/>
  <path d="M32 8 L38 26 L56 26 L42 36 L48 54 L32 44 L16 54 L22 36 L8 26 L26 26 Z" fill="#000" stroke="url(#magicGlow)" stroke-width="2" stroke-linejoin="round"/>
  <path d="M32 14 L36 26 L48 26 L38 34 L42 46 L32 40 L22 46 L26 34 L16 26 L28 26 Z" fill="#1a0a00" stroke="#ff6600" stroke-width="1"/>
  <circle cx="32" cy="30" r="4" fill="#ffb700"/>
  <path d="M48 12 L52 8 M52 12 L48 8" stroke="#fff" stroke-width="2" stroke-linecap="round"/>
  <circle cx="14" cy="16" r="2" fill="#ffb700"/>
  <circle cx="54" cy="48" r="2" fill="#ffb700"/>
</svg>