<svg viewBox="0 0 64 64" xmlns="http://www.w3.org/2000/svg">
  <defs>
    <linearGradient id="g6" x1="0%" y1="0%" x2="100%" y2="100%">
      <stop offset="0%" style="stop-color:#00d4ff;stop-opacity:0.35"/>
      <stop offset="100%" style="stop-color:#ff00ff;stop-opacity:0.25"/>
    </linearGradient>
  </defs>
  <!-- AR Container -->
  <circle cx="32" cy="32" r="26" fill="none" stroke="#00d4ff" stroke-width="0.6" stroke-dasharray="2 3" opacity="0.4"/>
  <!-- Glass Core -->
  <circle cx="32" cy="32" r="18" fill="url(#g6)" stroke="#ff00ff" stroke-width="1.2" opacity="0.8"/>
  <!-- Random Particles -->
  <circle cx="24" cy="24" r="2.5" fill="#00d4ff" opacity="0.9"/>
  <circle cx="40" cy="26" r="2" fill="#ff00ff" opacity="0.8"/>
  <circle cx="28" cy="40" r="1.8" fill="#ff00ff" opacity="0.7"/>
  <circle cx="42" cy="38" r="1.5" fill="#00d4ff" opacity="0.9"/>
  <circle cx="20" cy="34" r="1.2" fill="#ff00ff" opacity="0.8"/>
  <circle cx="36" cy="20" r="1" fill="#00d4ff" opacity="0.7"/>
  <circle cx="32" cy="32" r="0.8" fill="#ff00ff" opacity="1"/>
  <!-- Chaos Lines -->
  <path d="M24 24 Q28 28 32 24 T40 26" fill="none" stroke="#00d4ff" stroke-width="0.6" opacity="0.5"/>
  <path d="M28 40 Q32 36 36 38 T42 38" fill="none" stroke="#ff00ff" stroke-width="0.6" opacity="0.5"/>
  <!-- Hardware Chip Border -->
  <rect x="8" y="8" width="12" height="12" fill="none" stroke="#00d4ff" stroke-width="1" opacity="0.3"/>
  <rect x="44" y="8" width="12" height="12" fill="none" stroke="#ff00ff" stroke-width="1" opacity="0.3"/>
  <rect x="8" y="44" width="12" height="12" fill="none" stroke="#ff00ff" stroke-width="1" opacity="0.3"/>
  <rect x="44" y="44" width="12" height="12" fill="none" stroke="#00d4ff" stroke-width="1" opacity="0.3"/>
</svg>