<svg viewBox="0 0 64 64" xmlns="http://www.w3.org/2000/svg">
  <defs>
    <linearGradient id="g9" x1="0%" y1="0%" x2="100%" y2="0%">
      <stop offset="0%" style="stop-color:#00d4ff;stop-opacity:0.5"/>
      <stop offset="50%" style="stop-color:#ff00ff;stop-opacity:0.4"/>
      <stop offset="100%" style="stop-color:#00d4ff;stop-opacity:0.5"/>
    </linearGradient>
    <filter id="f9">
      <feGaussianBlur stdDeviation="0.8" result="b"/>
      <feMerge><feMergeNode in="b"/><feMergeNode in="SourceGraphic"/></feMerge>
    </filter>
  </defs>
  <!-- AR Target Frame -->
  <circle cx="32" cy="32" r="28" fill="none" stroke="#00d4ff" stroke-width="0.5" stroke-dasharray="4 4" opacity="0.3"/>
  <line x1="32" y1="4" x2="32" y2="12" stroke="#ff00ff" stroke-width="1" opacity="0.5"/>
  <line x1="32" y1="52" x2="32" y2="60" stroke="#ff00ff" stroke-width="1" opacity="0.5"/>
  <line x1="4" y1="32" x2="12" y2="32" stroke="#ff00ff" stroke-width="1" opacity="0.5"/>
  <line x1="52" y1="32" x2="60" y2="32" stroke="#ff00ff" stroke-width="1" opacity="0.5"/>
  <!-- Optical Fiber -->
  <path d="M12 32 Q20 20 32 20 T52 32" fill="none" stroke="url(#g9)" stroke-width="6" stroke-linecap="round" opacity="0.6" filter="url(#f9)"/>
  <path d="M12 32 Q20 20 32 20 T52 32" fill="none" stroke="#00d4ff" stroke-width="2" stroke-linecap="round"/>
  <!-- Light Pulses -->
  <circle cx="20" cy="26" r="3" fill="#ff00ff" opacity="0.9"/>
  <circle cx="32" cy="20" r="3" fill="#00d4ff" opacity="0.9"/>
  <circle cx="44" cy="26" r="3" fill="#ff00ff" opacity="0.9"/>
  <!-- Photons -->
  <circle cx="16" cy="30" r="1.5" fill="#00d4ff" opacity="0.8"/>
  <circle cx="24" cy="22" r="1.5" fill="#ff00ff" opacity="0.8"/>
  <circle cx="40" cy="22" r="1.5" fill="#00d4ff" opacity="0.8"/>
  <circle cx="48" cy="30" r="1.5" fill="#ff00ff" opacity="0.8"/>
  <!-- Wave Indicator -->
  <path d="M20 44 Q24 40 28 44 T36 44" fill="none" stroke="#00d4ff" stroke-width="1" opacity="0.6"/>
  <path d="M36 44 Q40 40 44 44" fill="none" stroke="#ff00ff" stroke-width="1" opacity="0.6"/>
</svg>