<svg viewBox="0 0 64 64" xmlns="http://www.w3.org/2000/svg">
  <defs>
    <linearGradient id="g13" x1="0%" y1="0%" x2="0%" y2="100%">
      <stop offset="0%" style="stop-color:#ff00ff;stop-opacity:0.3"/>
      <stop offset="100%" style="stop-color:#00d4ff;stop-opacity:0.25"/>
    </linearGradient>
  </defs>
  <!-- AR Database Frame -->
  <ellipse cx="32" cy="52" rx="20" ry="6" fill="none" stroke="#00d4ff" stroke-width="0.8" opacity="0.4"/>
  <!-- Glass Cylinder Stack -->
  <ellipse cx="32" cy="16" rx="18" ry="5" fill="url(#g13)" stroke="#ff00ff" stroke-width="1.2" opacity="0.8"/>
  <path d="M14 16 L14 36 C14 41 22 44 32 44 C42 44 50 41 50 36 L50 16" fill="none" stroke="#00d4ff" stroke-width="1.2" opacity="0.7"/>
  <ellipse cx="32" cy="36" rx="18" ry="5" fill="url(#g13)" stroke="#00d4ff" stroke-width="1.2" opacity="0.6"/>
  <!-- Model Layers -->
  <ellipse cx="32" cy="24" rx="16" ry="4" fill="none" stroke="#ff00ff" stroke-width="0.8" opacity="0.5"/>
  <ellipse cx="32" cy="32" rx="16" ry="4" fill="none" stroke="#00d4ff" stroke-width="0.8" opacity="0.5"/>
  <!-- Registry Markers -->
  <rect x="22" y="20" width="6" height="4" rx="1" fill="#00d4ff" opacity="0.7"/>
  <rect x="36" y="28" width="6" height="4" rx="1" fill="#ff00ff" opacity="0.7"/>
  <rect x="24" y="36" width="6" height="4" rx="1" fill="#00d4ff" opacity="0.7"/>
  <!-- Version Tags -->
  <text x="32" y="12" text-anchor="middle" fill="#ff00ff" font-size="4" font-family="monospace" opacity="0.9">v2.1</text>
  <!-- AR Corners -->
  <path d="M8 8 L8 4 L12 4" stroke="#00d4ff" stroke-width="1" fill="none" opacity="0.5"/>
  <path d="M56 8 L56 4 L52 4" stroke="#00d4ff" stroke-width="1" fill="none" opacity="0.5"/>
</svg>