<svg viewBox="0 0 64 64" xmlns="http://www.w3.org/2000/svg">
  <!-- Hexagon frame -->
  <path d="M32 4 L56 16 L56 44 L32 56 L8 44 L8 16 Z" fill="none" stroke="currentColor" stroke-width="1.5" opacity="0.3"/>
  <path d="M32 8 L52 18 L52 42 L32 52 L12 42 L12 18 Z" fill="none" stroke="currentColor" stroke-width="0.5" opacity="0.5"/>

  <!-- Source code brackets -->
  <path d="M20 20 L14 28 L20 36" fill="none" stroke="currentColor" stroke-width="2" stroke-linecap="round" stroke-linejoin="round"/>
  <path d="M44 20 L50 28 L44 36" fill="none" stroke="currentColor" stroke-width="2" stroke-linecap="round" stroke-linejoin="round"/>

  <!-- Code lines -->
  <line x1="24" y1="26" x2="34" y2="26" stroke="currentColor" stroke-width="2" opacity="0.7"/>
  <line x1="24" y1="30" x2="40" y2="30" stroke="currentColor" stroke-width="2" opacity="0.7"/>

  <!-- Lightning bolt - JIT execution -->
  <path d="M28 34 L36 34 L30 42 L40 42 L30 52 L32 44 L24 44 Z" fill="currentColor" opacity="0.9"/>

  <!-- Gear teeth accents -->
  <rect x="30" y="12" width="4" height="3" fill="currentColor" opacity="0.6"/>
  <rect x="30" y="49" width="4" height="3" fill="currentColor" opacity="0.6"/>
</svg>