<svg viewBox="0 0 64 64" xmlns="http://www.w3.org/2000/svg">
  <defs>
    <linearGradient id="g5" x1="0%" y1="0%" x2="100%" y2="100%">
      <stop offset="0%" style="stop-color:#ff00ff;stop-opacity:0.3"/>
      <stop offset="100%" style="stop-color:#00d4ff;stop-opacity:0.2"/>
    </linearGradient>
    <filter id="f5">
      <feDropShadow dx="0" dy="0" stdDeviation="1" flood-color="#ff00ff" flood-opacity="0.5"/>
    </filter>
  </defs>
  <!-- AR Shield Frame -->
  <path d="M10 12 L32 6 L54 12 L54 28 C54 44 32 58 32 58 C32 58 10 44 10 28 Z" fill="none" stroke="#00d4ff" stroke-width="1" stroke-dasharray="3 2" opacity="0.4"/>
  <!-- Glass Shield -->
  <path d="M14 14 L32 10 L50 14 L50 28 C50 42 32 52 32 52 C32 52 14 42 14 28 Z" fill="url(#g5)" stroke="#ff00ff" stroke-width="1.5" opacity="0.85"/>
  <!-- Lock Core -->
  <rect x="26" y="24" width="12" height="14" rx="2" fill="#00d4ff" opacity="0.4" filter="url(#f5)"/>
  <circle cx="32" cy="30" r="3" fill="#ff00ff" opacity="0.8"/>
  <rect x="31" y="30" width="2" height="5" fill="#ff00ff" opacity="0.9"/>
  <!-- Secure Rings -->
  <ellipse cx="32" cy="20" rx="6" ry="3" fill="none" stroke="#00d4ff" stroke-width="1" opacity="0.6"/>
  <!-- Data Protection Lines -->
  <line x1="20" y1="34" x2="24" y2="34" stroke="#00d4ff" stroke-width="1" opacity="0.7"/>
  <line x1="40" y1="34" x2="44" y2="34" stroke="#00d4ff" stroke-width="1" opacity="0.7"/>
  <line x1="22" y1="38" x2="26" y2="38" stroke="#ff00ff" stroke-width="1" opacity="0.7"/>
  <line x1="38" y1="38" x2="42" y2="38" stroke="#ff00ff" stroke-width="1" opacity="0.7"/>
</svg>