<svg viewBox="0 0 64 64" xmlns="http://www.w3.org/2000/svg">
  <defs>
    <linearGradient id="g8" x1="0%" y1="0%" x2="100%" y2="100%">
      <stop offset="0%" style="stop-color:#ff00ff;stop-opacity:0.3"/>
      <stop offset="50%" style="stop-color:#00d4ff;stop-opacity:0.3"/>
      <stop offset="100%" style="stop-color:#ff00ff;stop-opacity:0.3"/>
    </linearGradient>
  </defs>
  <!-- AR Grid Corners -->
  <path d="M4 16 L4 4 L16 4" stroke="#00d4ff" stroke-width="1" fill="none" opacity="0.5"/>
  <path d="M60 16 L60 4 L48 4" stroke="#00d4ff" stroke-width="1" fill="none" opacity="0.5"/>
  <path d="M4 48 L4 60 L16 60" stroke="#ff00ff" stroke-width="1" fill="none" opacity="0.5"/>
  <path d="M60 48 L60 60 L48 60" stroke="#ff00ff" stroke-width="1" fill="none" opacity="0.5"/>
  <!-- Morphing Shape -->
  <path d="M32 10 Q46 16 50 32 Q46 48 32 54 Q18 48 14 32 Q18 16 32 10" fill="url(#g8)" stroke="#00d4ff" stroke-width="1.5" opacity="0.8">
  </path>
  <!-- Transformation Points -->
  <circle cx="32" cy="10" r="3" fill="#ff00ff" opacity="0.8"/>
  <circle cx="50" cy="32" r="3" fill="#00d4ff" opacity="0.8"/>
  <circle cx="32" cy="54" r="3" fill="#ff00ff" opacity="0.8"/>
  <circle cx="14" cy="32" r="3" fill="#00d4ff" opacity="0.8"/>
  <!-- Morph Arrows -->
  <path d="M38 18 L44 14 L40 22" fill="none" stroke="#ff00ff" stroke-width="1.2" opacity="0.7"/>
  <path d="M46 38 L52 36 L48 42" fill="none" stroke="#00d4ff" stroke-width="1.2" opacity="0.7"/>
  <path d="M26 46 L20 50 L24 42" fill="none" stroke="#ff00ff" stroke-width="1.2" opacity="0.7"/>
  <path d="M18 26 L12 28 L16 22" fill="none" stroke="#00d4ff" stroke-width="1.2" opacity="0.7"/>
  <!-- Center Core -->
  <circle cx="32" cy="32" r="5" fill="#ff00ff" opacity="0.4"/>
  <circle cx="32" cy="32" r="2" fill="#00d4ff" opacity="0.9"/>
</svg>