<svg viewBox="0 0 64 64" xmlns="http://www.w3.org/2000/svg">
  <defs>
    <linearGradient id="g18" x1="0%" y1="0%" x2="100%" y2="100%">
      <stop offset="0%" style="stop-color:#ff00ff;stop-opacity:0.35"/>
      <stop offset="100%" style="stop-color:#00d4ff;stop-opacity:0.25"/>
    </linearGradient>
  </defs>
  <!-- AR Magic Circle -->
  <circle cx="32" cy="32" r="26" fill="none" stroke="#00d4ff" stroke-width="0.6" stroke-dasharray="2 3" opacity="0.3"/>
  <circle cx="32" cy="32" r="22" fill="none" stroke="#ff00ff" stroke-width="0.6" stroke-dasharray="3 2" opacity="0.3"/>
  <!-- Wizard Hat -->
  <polygon points="32,8 48,48 16,48" fill="url(#g18)" stroke="#00d4ff" stroke-width="1.5" opacity="0.85"/>
  <!-- Hat Band -->
  <rect x="20" y="42" width="24" height="6" rx="1" fill="#ff00ff" opacity="0.5"/>
  <!-- Sparkles/Magic -->
  <polygon points="32,4 34,10 40,10 35,14 37,20 32,16 27,20 29,14 24,10 30,10" fill="#00d4ff" opacity="0.8"/>
  <polygon points="14,24 15,27 18,27 16,29 17,32 14,30 11,32 12,29 10,27 13,27" fill="#ff00ff" opacity="0.7"/>
  <polygon points="50,20 51,23 54,23 52,25 53,28 50,26 47,28 48,25 46,23 49,23" fill="#ff00ff" opacity="0.7"/>
  <polygon points="50,44 51,47 54,47 52,49 53,52 50,50 47,52 48,49 46,47 49,47" fill="#00d4ff" opacity="0.7"/>
  <!-- Wand -->
  <line x1="48" y1="16" x2="56" y2="8" stroke="#ff00ff" stroke-width="2" stroke-linecap="round" opacity="0.8"/>
  <circle cx="56" cy="8" r="2" fill="#00d4ff" opacity="0.9"/>
  <!-- Setup Progress -->
  <path d="M18 54 Q32 60 46 54" fill="none" stroke="#00d4ff" stroke-width="1.5" opacity="0.6"/>
  <circle cx="18" cy="54" r="2" fill="#ff00ff" opacity="0.8"/>
  <circle cx="32" cy="57" r="2" fill="#00d4ff" opacity="0.8"/>
  <circle cx="46" cy="54" r="2" fill="#ff00ff" opacity="0.8"/>
</svg>