<svg viewBox="0 0 64 64" xmlns="http://www.w3.org/2000/svg">
  <defs>
    <linearGradient id="silver" x1="0%" y1="0%" x2="100%" y2="100%">
      <stop offset="0%" stop-color="#e8e8e8"/>
      <stop offset="50%" stop-color="#c0c0c0"/>
      <stop offset="100%" stop-color="#7a7a7a"/>
    </linearGradient>
  </defs>
  <!-- Central hexagonal chaos core -->
  <path d="M32 16 L44 22 L44 34 L32 40 L20 34 L20 22 Z" fill="url(#silver)"/>
  <!-- Random particle distribution -->
  <circle cx="16" cy="12" r="2" fill="#c0c0c0"/>
  <circle cx="48" cy="14" r="1.5" fill="#a0a0a0"/>
  <circle cx="52" cy="32" r="2.5" fill="#7a7a7a"/>
  <circle cx="46" cy="50" r="2" fill="#c0c0c0"/>
  <circle cx="20" cy="54" r="1.5" fill="#a0a0a0"/>
  <circle cx="8" cy="40" r="2" fill="#7a7a7a"/>
  <circle cx="12" cy="24" r="1.5" fill="#c0c0c0"/>
  <circle cx="56" cy="48" r="1.5" fill="#a0a0a0"/>
  <!-- Random hexagon structures -->
  <path d="M8 8 L12 10 L12 14 L8 16 L4 14 L4 10 Z" fill="#7a7a7a"/>
  <path d="M54 8 L58 10 L58 14 L54 16 L50 14 L50 10 Z" fill="#a0a0a0"/>
  <path d="M6 50 L10 52 L10 56 L6 58 L2 56 L2 52 Z" fill="#a0a0a0"/>
  <path d="M58 54 L62 56 L62 60 L58 62 L54 60 L54 56 Z" fill="#7a7a7a"/>
  <!-- Chaotic connection lines -->
  <line x1="16" y1="12" x2="20" y2="22" stroke="#7a7a7a" stroke-width="0.5"/>
  <line x1="48" y1="14" x2="44" y2="22" stroke="#7a7a7a" stroke-width="0.5"/>
  <line x1="52" y1="32" x2="44" y2="34" stroke="#7a7a7a" stroke-width="0.5"/>
  <line x1="46" y1="50" x2="44" y2="40" stroke="#7a7a7a" stroke-width="0.5"/>
  <line x1="20" y1="54" x2="20" y2="40" stroke="#7a7a7a" stroke-width="0.5"/>
  <line x1="8" y1="40" x2="20" y2="34" stroke="#7a7a7a" stroke-width="0.5"/>
  <!-- Central randomness indicator -->
  <text x="32" y="32" text-anchor="middle" font-size="10" fill="#7a7a7a" font-family="monospace">?</text>
</svg>