<svg viewBox="0 0 64 64" xmlns="http://www.w3.org/2000/svg">
  <defs>
    <linearGradient id="silver" x1="0%" y1="0%" x2="100%" y2="0%">
      <stop offset="0%" stop-color="#7a7a7a"/>
      <stop offset="50%" stop-color="#c0c0c0"/>
      <stop offset="100%" stop-color="#7a7a7a"/>
    </linearGradient>
  </defs>
  <!-- Direct memory access arrow -->
  <path d="M8 28 L44 28 L44 20 L60 32 L44 44 L44 36 L8 36 Z" fill="url(#silver)"/>
  <!-- Source memory node -->
  <path d="M4 20 L16 26 L16 38 L4 44 L-8 38 L-8 26 Z" fill="#a0a0a0"/>
  <rect x="0" y="28" width="8" height="8" fill="#7a7a7a"/>
  <!-- Target memory node -->
  <path d="M60 20 L72 26 L72 38 L60 44 L48 38 L48 26 Z" fill="#c0c0c0"/>
  <rect x="56" y="28" width="8" height="8" fill="#7a7a7a"/>
  <!-- Hexagonal data packets -->
  <path d="M20 8 L26 11 L26 17 L20 20 L14 17 L14 11 Z" fill="#c0c0c0"/>
  <path d="M32 6 L38 9 L38 15 L32 18 L26 15 L26 9 Z" fill="#a0a0a0"/>
  <path d="M44 8 L50 11 L50 17 L44 20 L38 17 L38 11 Z" fill="#c0c0c0"/>
  <!-- Data flow lines -->
  <line x1="20" y1="20" x2="24" y2="26" stroke="#7a7a7a" stroke-width="1"/>
  <line x1="32" y1="18" x2="32" y2="26" stroke="#7a7a7a" stroke-width="1"/>
  <line x1="44" y1="20" x2="40" y2="26" stroke="#7a7a7a" stroke-width="1"/>
  <!-- Bottom hex nodes -->
  <path d="M20 48 L26 51 L26 57 L20 60 L14 57 L14 51 Z" fill="#a0a0a0"/>
  <path d="M32 46 L38 49 L38 55 L32 58 L26 55 L26 49 Z" fill="#7a7a7a"/>
  <path d="M44 48 L50 51 L50 57 L44 60 L38 57 L38 51 Z" fill="#a0a0a0"/>
</svg>