<svg viewBox="0 0 64 64" xmlns="http://www.w3.org/2000/svg">
  <defs>
    <linearGradient id="silver" x1="0%" y1="0%" x2="0%" y2="100%">
      <stop offset="0%" stop-color="#e8e8e8"/>
      <stop offset="100%" stop-color="#7a7a7a"/>
    </linearGradient>
  </defs>
  <!-- Central registry hexagon -->
  <path d="M32 8 L52 18 L52 38 L32 48 L12 38 L12 18 Z" fill="url(#silver)"/>
  <!-- Database cylinder effect -->
  <ellipse cx="32" cy="18" rx="20" ry="8" fill="#a0a0a0"/>
  <ellipse cx="32" cy="18" rx="18" ry="6" fill="#c0c0c0"/>
  <!-- Stacked layers -->
  <path d="M14 22 L32 31 L50 22 L50 26 L32 35 L14 26 Z" fill="#9a9a9a"/>
  <path d="M14 28 L32 37 L50 28 L50 32 L32 41 L14 32 Z" fill="#8a8a8a"/>
  <path d="M14 34 L32 43 L50 34 L50 38 L32 47 L14 38 Z" fill="#7a7a7a"/>
  <!-- Model indicators -->
  <rect x="20" y="20" width="4" height="4" fill="#7a7a7a"/>
  <rect x="30" y="24" width="4" height="4" fill="#7a7a7a"/>
  <rect x="40" y="20" width="4" height="4" fill="#7a7a7a"/>
  <!-- Connected nodes -->
  <path d="M4 46 L10 49 L10 55 L4 58 L-2 55 L-2 49 Z" fill="#a0a0a0"/>
  <path d="M60 46 L66 49 L66 55 L60 58 L54 55 L54 49 Z" fill="#a0a0a0"/>
  <path d="M28 52 L34 55 L34 61 L28 64 L22 61 L22 55 Z" fill="#c0c0c0"/>
  <!-- Connection lines -->
  <line x1="12" y1="38" x2="4" y2="48" stroke="#7a7a7a" stroke-width="1"/>
  <line x1="52" y1="38" x2="60" y2="48" stroke="#7a7a7a" stroke-width="1"/>
  <line x1="32" y1="48" x2="28" y2="54" stroke="#7a7a7a" stroke-width="1"/>
</svg>