<svg viewBox="0 0 64 64" xmlns="http://www.w3.org/2000/svg">
  <defs>
    <linearGradient id="silver" x1="0%" y1="0%" x2="100%" y2="100%">
      <stop offset="0%" stop-color="#e8e8e8"/>
      <stop offset="50%" stop-color="#c0c0c0"/>
      <stop offset="100%" stop-color="#7a7a7a"/>
    </linearGradient>
  </defs>
  <!-- Energy core hexagon -->
  <path d="M32 12 L46 19 L46 33 L32 40 L18 33 L18 19 Z" fill="url(#silver)"/>
  <!-- Power symbol -->
  <circle cx="32" cy="26" r="8" fill="#7a7a7a"/>
  <path d="M32 20 L32 26 M28 22 Q26 26 28 30 Q32 34 36 30 Q38 26 36 22" fill="none" stroke="#c0c0c0" stroke-width="2" stroke-linecap="round"/>
  <!-- Energy distribution hexagons -->
  <path d="M8 8 L14 11 L14 17 L8 20 L2 17 L2 11 Z" fill="#c0c0c0"/>
  <path d="M56 8 L62 11 L62 17 L56 20 L50 17 L50 11 Z" fill="#c0c0c0"/>
  <path d="M8 44 L14 47 L14 53 L8 56 L2 53 L2 47 Z" fill="#a0a0a0"/>
  <path d="M56 44 L62 47 L62 53 L56 56 L50 53 L50 47 Z" fill="#a0a0a0"/>
  <!-- Energy flow lines -->
  <line x1="14" y1="14" x2="18" y2="19" stroke="#7a7a7a" stroke-width="1.5"/>
  <line x1="50" y1="14" x2="46" y2="19" stroke="#7a7a7a" stroke-width="1.5"/>
  <line x1="14" y1="50" x2="18" y2="33" stroke="#7a7a7a" stroke-width="1.5"/>
  <line x1="50" y1="50" x2="46" y2="33" stroke="#7a7a7a" stroke-width="1.5"/>
  <!-- Nano energy grid -->
  <path d="M28 44 L32 46 L36 44 L36 48 L32 50 L28 48 Z" fill="#a0a0a0"/>
  <line x1="32" y1="40" x2="32" y2="46" stroke="#7a7a7a" stroke-width="1"/>
  <!-- Voltage indicators -->
  <text x="8" y="15" text-anchor="middle" font-size="4" fill="#5a5a5a">+</text>
  <text x="56" y="15" text-anchor="middle" font-size="4" fill="#5a5a5a">-</text>
</svg>