<svg viewBox="0 0 64 64" xmlns="http://www.w3.org/2000/svg">
  <defs>
    <linearGradient id="silver" x1="0%" y1="0%" x2="100%" y2="100%">
      <stop offset="0%" stop-color="#e8e8e8"/>
      <stop offset="50%" stop-color="#c0c0c0"/>
      <stop offset="100%" stop-color="#7a7a7a"/>
    </linearGradient>
  </defs>
  <!-- Clock/schedule ring -->
  <circle cx="32" cy="32" r="24" fill="none" stroke="#a0a0a0" stroke-width="2"/>
  <circle cx="32" cy="32" r="20" fill="none" stroke="#c0c0c0" stroke-width="1"/>
  <!-- Clock hexagon center -->
  <path d="M32 22 L40 26 L40 34 L32 38 L24 34 L24 26 Z" fill="url(#silver)"/>
  <!-- Clock hands -->
  <line x1="32" y1="30" x2="32" y2="24" stroke="#7a7a7a" stroke-width="2" stroke-linecap="round"/>
  <line x1="32" y1="30" x2="36" y2="32" stroke="#7a7a7a" stroke-width="1.5" stroke-linecap="round"/>
  <circle cx="32" cy="30" r="2" fill="#5a5a5a"/>
  <!-- Thread/task hexagons around clock -->
  <path d="M32 4 L36 6 L36 10 L32 12 L28 10 L28 6 Z" fill="#c0c0c0"/>
  <path d="M52 14 L56 16 L56 20 L52 22 L48 20 L48 16 Z" fill="#a0a0a0"/>
  <path d="M56 32 L60 34 L60 38 L56 40 L52 38 L52 34 Z" fill="#c0c0c0"/>
  <path d="M48 50 L52 52 L52 56 L48 58 L44 56 L44 52 Z" fill="#a0a0a0"/>
  <path d="M32 52 L36 54 L36 58 L32 60 L28 58 L28 54 Z" fill="#c0c0c0"/>
  <path d="M16 50 L20 52 L20 56 L16 58 L12 56 L12 52 Z" fill="#a0a0a0"/>
  <path d="M8 32 L12 34 L12 38 L8 40 L4 38 L4 34 Z" fill="#c0c0c0"/>
  <path d="M12 14 L16 16 L16 20 L12 22 L8 20 L8 16 Z" fill="#a0a0a0"/>
  <!-- Tick marks -->
  <line x1="32" y1="8" x2="32" y2="12" stroke="#7a7a7a" stroke-width="1"/>
  <line x1="56" y1="32" x2="52" y2="32" stroke="#7a7a7a" stroke-width="1"/>
  <line x1="32" y1="56" x2="32" y2="52" stroke="#7a7a7a" stroke-width="1"/>
  <line x1="8" y1="32" x2="12" y2="32" stroke="#7a7a7a" stroke-width="1"/>
</svg>