<svg viewBox="0 0 64 64" xmlns="http://www.w3.org/2000/svg">
  <defs>
    <linearGradient id="silver" x1="0%" y1="0%" x2="100%" y2="100%">
      <stop offset="0%" stop-color="#e8e8e8"/>
      <stop offset="50%" stop-color="#c0c0c0"/>
      <stop offset="100%" stop-color="#7a7a7a"/>
    </linearGradient>
  </defs>
  <!-- GPU chip hexagon base -->
  <path d="M32 4 L56 16 L56 40 L32 52 L8 40 L8 16 Z" fill="#5a5a5a"/>
  <!-- Inner processor -->
  <path d="M32 12 L48 20 L48 36 L32 44 L16 36 L16 20 Z" fill="url(#silver)"/>
  <!-- Processing units grid -->
  <rect x="22" y="22" width="6" height="6" fill="#7a7a7a"/>
  <rect x="30" y="22" width="6" height="6" fill="#7a7a7a"/>
  <rect x="38" y="22" width="6" height="6" fill="#7a7a7a"/>
  <rect x="22" y="30" width="6" height="6" fill="#7a7a7a"/>
  <rect x="30" y="30" width="6" height="6" fill="#a0a0a0"/>
  <rect x="38" y="30" width="6" height="6" fill="#7a7a7a"/>
  <!-- VRAM hexagons around chip -->
  <path d="M4 8 L10 11 L10 17 L4 20 L-2 17 L-2 11 Z" fill="#a0a0a0"/>
  <path d="M60 8 L66 11 L66 17 L60 20 L54 17 L54 11 Z" fill="#a0a0a0"/>
  <path d="M4 40 L10 43 L10 49 L4 52 L-2 49 L-2 43 Z" fill="#a0a0a0"/>
  <path d="M60 40 L66 43 L66 49 L60 52 L54 49 L54 43 Z" fill="#a0a0a0"/>
  <!-- PCIe connector -->
  <rect x="20" y="52" width="24" height="6" fill="#7a7a7a" rx="1"/>
  <line x1="24" y1="52" x2="24" y2="58" stroke="#c0c0c0" stroke-width="1"/>
  <line x1="28" y1="52" x2="28" y2="58" stroke="#c0c0c0" stroke-width="1"/>
  <line x1="32" y1="52" x2="32" y2="58" stroke="#c0c0c0" stroke-width="1"/>
  <line x1="36" y1="52" x2="36" y2="58" stroke="#c0c0c0" stroke-width="1"/>
  <line x1="40" y1="52" x2="40" y2="58" stroke="#c0c0c0" stroke-width="1"/>
  <!-- Nano traces -->
  <line x1="8" y1="16" x2="4" y2="14" stroke="#7a7a7a" stroke-width="1"/>
  <line x1="56" y1="16" x2="60" y2="14" stroke="#7a7a7a" stroke-width="1"/>
  <line x1="8" y1="40" x2="4" y2="46" stroke="#7a7a7a" stroke-width="1"/>
  <line x1="56" y1="40" x2="60" y2="46" stroke="#7a7a7a" stroke-width="1"/>
</svg>